<?xml version="1.0" encoding="UTF-8"?>
<!DOCTYPE svg PUBLIC "-//W3C//DTD SVG 1.1//EN" "http://www.w3.org/Graphics/SVG/1.1/DTD/svg11.dtd">
<svg xmlns="http://www.w3.org/2000/svg" version="1.1" width="500px" height="500px" style="shape-rendering:geometricPrecision; text-rendering:geometricPrecision; image-rendering:optimizeQuality; fill-rule:evenodd; clip-rule:evenodd" xmlns:xlink="http://www.w3.org/1999/xlink">
<g><path style="opacity:1" fill="#f4f7fe" d="M 223.5,-0.5 C 243.167,-0.5 262.833,-0.5 282.5,-0.5C 286.019,0.632154 289.686,1.63215 293.5,2.5C 292.391,3.28997 291.058,3.78997 289.5,4C 292.309,5.0934 294.976,6.26007 297.5,7.5C 295.879,7.7869 294.879,8.7869 294.5,10.5C 295.309,12.0709 295.643,13.7376 295.5,15.5C 294.167,15.5 292.833,15.5 291.5,15.5C 291.5,13.5 291.5,11.5 291.5,9.5C 289.334,9.57888 287.334,10.2455 285.5,11.5C 283.845,10.772 282.179,10.6053 280.5,11C 279.993,13.5659 278.826,15.7325 277,17.5C 275.403,16.1153 273.57,15.4486 271.5,15.5C 271.5,18.1667 271.5,20.8333 271.5,23.5C 266.167,23.5 260.833,23.5 255.5,23.5C 255.5,26.1667 255.5,28.8333 255.5,31.5C 250.167,31.5 244.833,31.5 239.5,31.5C 239.5,34.1667 239.5,36.8333 239.5,39.5C 234.167,39.5 228.833,39.5 223.5,39.5C 224.168,46.3376 223.168,52.8376 220.5,59C 211.203,62.3728 201.536,63.8728 191.5,63.5C 191.5,66.1667 191.5,68.8333 191.5,71.5C 186.167,71.5 180.833,71.5 175.5,71.5C 175.5,74.1667 175.5,76.8333 175.5,79.5C 170.167,79.5 164.833,79.5 159.5,79.5C 159.5,82.1667 159.5,84.8333 159.5,87.5C 154.167,87.5 148.833,87.5 143.5,87.5C 143.5,90.1667 143.5,92.8333 143.5,95.5C 138.167,95.5 132.833,95.5 127.5,95.5C 127.5,98.1667 127.5,100.833 127.5,103.5C 122.261,102.963 117.261,103.63 112.5,105.5C 110.401,103.466 108.068,103.132 105.5,104.5C 102.833,107.167 102.833,109.833 105.5,112.5C 104.504,115.332 102.504,116.665 99.5,116.5C 99.5,117.5 99.5,118.5 99.5,119.5C 94.6136,118.195 93.9469,119.028 97.5,122C 97.1667,122.167 96.8333,122.333 96.5,122.5C 94.9291,121.691 93.2624,121.357 91.5,121.5C 99.1366,99.9279 110.303,79.9279 125,61.5C 130.497,56.6282 135.664,50.7949 140.5,44C 143.989,43.0722 146.989,41.4056 149.5,39C 149.167,38.6667 148.833,38.3333 148.5,38C 149.5,37.6667 150.5,37.3333 151.5,37C 151.167,36.6667 150.833,36.3333 150.5,36C 151.76,34.887 152.927,34.7203 154,35.5C 155.487,34.7471 155.654,33.9138 154.5,33C 158.945,32.4634 162.279,30.2968 164.5,26.5C 166.595,28.5649 168.428,30.8983 170,33.5C 170.837,31.6494 171.671,29.8161 172.5,28C 174.9,27.8142 177.234,27.3142 179.5,26.5C 176.53,26.0051 174.196,24.5051 172.5,22C 175.804,19.788 179.304,17.9546 183,16.5C 185.273,20.6553 186.439,20.322 186.5,15.5C 188.167,15.5 189.833,15.5 191.5,15.5C 191.33,14.1779 191.663,13.0113 192.5,12C 194.433,11.7489 196.266,11.2489 198,10.5C 198.333,10.8333 198.667,11.1667 199,11.5C 199.483,10.552 199.649,9.55198 199.5,8.5C 207.431,7.98078 215.097,6.31411 222.5,3.5C 222.333,3.16667 222.167,2.83333 222,2.5C 219.936,3.59143 217.769,3.7581 215.5,3C 217.058,2.78997 218.391,2.28997 219.5,1.5C 221.153,1.3404 222.486,0.673734 223.5,-0.5 Z"/></g>
<g><path style="opacity:0.504" fill="#fcfdfe" d="M 293.5,2.5 C 327.41,13.5664 353.91,34.233 373,64.5C 381.079,81.5941 392.579,96.0941 407.5,108C 423.075,118.609 438.409,129.443 453.5,140.5C 453.5,141.167 453.5,141.833 453.5,142.5C 441.821,134.179 429.821,126.179 417.5,118.5C 407.27,111.278 397.603,103.278 388.5,94.5C 381.965,84.8661 375.632,75.1994 369.5,65.5C 369.291,64.0783 368.791,62.745 368,61.5C 357.938,47.295 346.105,34.9616 332.5,24.5C 329.721,22.376 326.721,20.7093 323.5,19.5C 322.426,18.1154 321.093,16.9487 319.5,16C 313.786,13.5317 308.12,10.865 302.5,8C 300.866,7.50649 299.199,7.33982 297.5,7.5C 294.976,6.26007 292.309,5.0934 289.5,4C 291.058,3.78997 292.391,3.28997 293.5,2.5 Z"/></g>
<g><path style="opacity:1" fill="#f1f4fe" d="M 297.5,7.5 C 299.199,7.33982 300.866,7.50649 302.5,8C 308.12,10.865 313.786,13.5317 319.5,16C 321.093,16.9487 322.426,18.1154 323.5,19.5C 321.669,20.0522 320.003,20.0522 318.5,19.5C 318.167,20.1667 317.833,20.8333 317.5,21.5C 318.754,23.3337 319.421,25.3337 319.5,27.5C 318.167,27.5 316.833,27.5 315.5,27.5C 315.5,28.8333 315.5,30.1667 315.5,31.5C 311.5,31.5 307.5,31.5 303.5,31.5C 303.5,36.8333 303.5,42.1667 303.5,47.5C 300.167,47.5 296.833,47.5 293.5,47.5C 292.833,42.1667 292.167,42.1667 291.5,47.5C 284.833,47.5 278.167,47.5 271.5,47.5C 271.5,50.1667 271.5,52.8333 271.5,55.5C 266.167,55.5 260.833,55.5 255.5,55.5C 255.5,58.1667 255.5,60.8333 255.5,63.5C 250.167,63.5 244.833,63.5 239.5,63.5C 239.5,66.1667 239.5,68.8333 239.5,71.5C 234.167,71.5 228.833,71.5 223.5,71.5C 223.5,74.1667 223.5,76.8333 223.5,79.5C 218.167,79.5 212.833,79.5 207.5,79.5C 207.5,82.1667 207.5,84.8333 207.5,87.5C 202.167,87.5 196.833,87.5 191.5,87.5C 191.5,90.1667 191.5,92.8333 191.5,95.5C 186.167,95.5 180.833,95.5 175.5,95.5C 175.5,100.833 175.5,106.167 175.5,111.5C 176.833,111.5 178.167,111.5 179.5,111.5C 179.67,112.822 179.337,113.989 178.5,115C 166.838,115.5 155.171,115.667 143.5,115.5C 143.5,116.833 143.5,118.167 143.5,119.5C 159.5,119.5 175.5,119.5 191.5,119.5C 218.174,120.278 244.84,121.278 271.5,122.5C 219.499,122.333 167.499,122.5 115.5,123C 113.618,123.198 111.952,123.698 110.5,124.5C 110.5,136.833 110.5,149.167 110.5,161.5C 109.833,149.993 109.167,138.326 108.5,126.5C 108.44,129.236 108.107,132.236 107.5,135.5C 104.833,135.5 102.167,135.5 99.5,135.5C 99.83,142.2 99.4967,148.866 98.5,155.5C 97.2178,152.358 94.8845,151.025 91.5,151.5C 91.5,152.833 91.5,154.167 91.5,155.5C 87.4659,155.505 83.4659,155.838 79.5,156.5C 77.7828,159.316 78.4494,161.483 81.5,163C 79.0796,163.29 76.7463,163.79 74.5,164.5C 81.2278,150.591 86.8945,136.258 91.5,121.5C 93.2624,121.357 94.9291,121.691 96.5,122.5C 96.8333,122.333 97.1667,122.167 97.5,122C 93.9469,119.028 94.6136,118.195 99.5,119.5C 99.5,118.5 99.5,117.5 99.5,116.5C 102.504,116.665 104.504,115.332 105.5,112.5C 102.833,109.833 102.833,107.167 105.5,104.5C 108.068,103.132 110.401,103.466 112.5,105.5C 117.261,103.63 122.261,102.963 127.5,103.5C 127.5,100.833 127.5,98.1667 127.5,95.5C 132.833,95.5 138.167,95.5 143.5,95.5C 143.5,92.8333 143.5,90.1667 143.5,87.5C 148.833,87.5 154.167,87.5 159.5,87.5C 159.5,84.8333 159.5,82.1667 159.5,79.5C 164.833,79.5 170.167,79.5 175.5,79.5C 175.5,76.8333 175.5,74.1667 175.5,71.5C 180.833,71.5 186.167,71.5 191.5,71.5C 191.5,68.8333 191.5,66.1667 191.5,63.5C 201.536,63.8728 211.203,62.3728 220.5,59C 223.168,52.8376 224.168,46.3376 223.5,39.5C 228.833,39.5 234.167,39.5 239.5,39.5C 239.5,36.8333 239.5,34.1667 239.5,31.5C 244.833,31.5 250.167,31.5 255.5,31.5C 255.5,28.8333 255.5,26.1667 255.5,23.5C 260.833,23.5 266.167,23.5 271.5,23.5C 271.5,20.8333 271.5,18.1667 271.5,15.5C 273.57,15.4486 275.403,16.1153 277,17.5C 278.826,15.7325 279.993,13.5659 280.5,11C 282.179,10.6053 283.845,10.772 285.5,11.5C 287.334,10.2455 289.334,9.57888 291.5,9.5C 291.5,11.5 291.5,13.5 291.5,15.5C 292.833,15.5 294.167,15.5 295.5,15.5C 295.643,13.7376 295.309,12.0709 294.5,10.5C 294.879,8.7869 295.879,7.7869 297.5,7.5 Z"/></g>
<g><path style="opacity:1" fill="#eff1fe" d="M 323.5,19.5 C 326.721,20.7093 329.721,22.376 332.5,24.5C 346.105,34.9616 357.938,47.295 368,61.5C 368.791,62.745 369.291,64.0783 369.5,65.5C 363.717,63.695 357.717,63.0283 351.5,63.5C 351.5,66.1667 351.5,68.8333 351.5,71.5C 346.167,71.5 340.833,71.5 335.5,71.5C 335.5,74.1667 335.5,76.8333 335.5,79.5C 330.167,79.5 324.833,79.5 319.5,79.5C 319.5,82.1667 319.5,84.8333 319.5,87.5C 314.167,87.5 308.833,87.5 303.5,87.5C 303.5,90.1667 303.5,92.8333 303.5,95.5C 298.833,95.5 294.167,95.5 289.5,95.5C 288.833,100.833 288.167,106.167 287.5,111.5C 282.167,111.5 276.833,111.5 271.5,111.5C 271.5,114.167 271.5,116.833 271.5,119.5C 244.833,119.5 218.167,119.5 191.5,119.5C 175.5,119.5 159.5,119.5 143.5,119.5C 143.5,118.167 143.5,116.833 143.5,115.5C 155.171,115.667 166.838,115.5 178.5,115C 179.337,113.989 179.67,112.822 179.5,111.5C 178.167,111.5 176.833,111.5 175.5,111.5C 175.5,106.167 175.5,100.833 175.5,95.5C 180.833,95.5 186.167,95.5 191.5,95.5C 191.5,92.8333 191.5,90.1667 191.5,87.5C 196.833,87.5 202.167,87.5 207.5,87.5C 207.5,84.8333 207.5,82.1667 207.5,79.5C 212.833,79.5 218.167,79.5 223.5,79.5C 223.5,76.8333 223.5,74.1667 223.5,71.5C 228.833,71.5 234.167,71.5 239.5,71.5C 239.5,68.8333 239.5,66.1667 239.5,63.5C 244.833,63.5 250.167,63.5 255.5,63.5C 255.5,60.8333 255.5,58.1667 255.5,55.5C 260.833,55.5 266.167,55.5 271.5,55.5C 271.5,52.8333 271.5,50.1667 271.5,47.5C 278.167,47.5 284.833,47.5 291.5,47.5C 292.167,42.1667 292.833,42.1667 293.5,47.5C 296.833,47.5 300.167,47.5 303.5,47.5C 303.5,42.1667 303.5,36.8333 303.5,31.5C 307.5,31.5 311.5,31.5 315.5,31.5C 315.5,30.1667 315.5,28.8333 315.5,27.5C 316.833,27.5 318.167,27.5 319.5,27.5C 319.421,25.3337 318.754,23.3337 317.5,21.5C 317.833,20.8333 318.167,20.1667 318.5,19.5C 320.003,20.0522 321.669,20.0522 323.5,19.5 Z"/></g>
<g><path style="opacity:0.398" fill="#fefefe" d="M 382.5,31.5 C 392.432,30.3602 396.932,34.6936 396,44.5C 393.185,50.1691 388.685,52.0024 382.5,50C 374.632,43.9663 374.632,37.7996 382.5,31.5 Z"/></g>
<g><path style="opacity:0.999" fill="#eff1fc" d="M 382.5,34.5 C 394.2,34.256 396.533,38.756 389.5,48C 379.189,47.8828 376.856,43.3828 382.5,34.5 Z"/></g>
<g><path style="opacity:0.402" fill="#fdfeff" d="M 408.5,48.5 C 423.1,48.6001 429.934,55.9334 429,70.5C 423.434,83.3648 414.267,86.8648 401.5,81C 394.515,74.4417 392.681,66.6083 396,57.5C 399.236,53.0818 403.402,50.0818 408.5,48.5 Z"/></g>
<g><path style="opacity:1" fill="#eaeefe" d="M 406.5,51.5 C 413.214,50.1698 418.881,51.8365 423.5,56.5C 427.524,60.8004 428.358,65.8004 426,71.5C 420.099,82.0129 411.932,84.1796 401.5,78C 393.687,67.3143 395.354,58.481 406.5,51.5 Z"/></g>
<g><path style="opacity:1" fill="#eaedfe" d="M 369.5,65.5 C 375.632,75.1994 381.965,84.8661 388.5,94.5C 397.603,103.278 407.27,111.278 417.5,118.5C 415.064,119.933 412.731,119.6 410.5,117.5C 409.158,119.005 407.492,119.672 405.5,119.5C 405.5,120.833 405.5,122.167 405.5,123.5C 406.833,123.5 408.167,123.5 409.5,123.5C 409.5,124.833 409.5,126.167 409.5,127.5C 405.894,127.789 402.394,127.456 399,126.5C 397.768,129.3 397.101,132.3 397,135.5C 396.823,131.644 396.323,127.977 395.5,124.5C 395.167,124.5 394.833,124.5 394.5,124.5C 353.658,123.781 312.658,123.114 271.5,122.5C 244.84,121.278 218.174,120.278 191.5,119.5C 218.167,119.5 244.833,119.5 271.5,119.5C 271.5,116.833 271.5,114.167 271.5,111.5C 276.833,111.5 282.167,111.5 287.5,111.5C 288.167,106.167 288.833,100.833 289.5,95.5C 294.167,95.5 298.833,95.5 303.5,95.5C 303.5,92.8333 303.5,90.1667 303.5,87.5C 308.833,87.5 314.167,87.5 319.5,87.5C 319.5,84.8333 319.5,82.1667 319.5,79.5C 324.833,79.5 330.167,79.5 335.5,79.5C 335.5,76.8333 335.5,74.1667 335.5,71.5C 340.833,71.5 346.167,71.5 351.5,71.5C 351.5,68.8333 351.5,66.1667 351.5,63.5C 357.717,63.0283 363.717,63.695 369.5,65.5 Z"/></g>
<g><path style="opacity:0.509" fill="#fcfdfe" d="M 219.5,1.5 C 218.391,2.28997 217.058,2.78997 215.5,3C 217.769,3.7581 219.936,3.59143 222,2.5C 222.167,2.83333 222.333,3.16667 222.5,3.5C 215.097,6.31411 207.431,7.98078 199.5,8.5C 199.649,9.55198 199.483,10.552 199,11.5C 198.667,11.1667 198.333,10.8333 198,10.5C 196.266,11.2489 194.433,11.7489 192.5,12C 191.663,13.0113 191.33,14.1779 191.5,15.5C 189.833,15.5 188.167,15.5 186.5,15.5C 186.439,20.322 185.273,20.6553 183,16.5C 179.304,17.9546 175.804,19.788 172.5,22C 174.196,24.5051 176.53,26.0051 179.5,26.5C 177.234,27.3142 174.9,27.8142 172.5,28C 171.671,29.8161 170.837,31.6494 170,33.5C 168.428,30.8983 166.595,28.5649 164.5,26.5C 162.279,30.2968 158.945,32.4634 154.5,33C 155.654,33.9138 155.487,34.7471 154,35.5C 152.927,34.7203 151.76,34.887 150.5,36C 150.833,36.3333 151.167,36.6667 151.5,37C 150.5,37.3333 149.5,37.6667 148.5,38C 148.833,38.3333 149.167,38.6667 149.5,39C 146.989,41.4056 143.989,43.0722 140.5,44C 135.664,50.7949 130.497,56.6282 125,61.5C 110.303,79.9279 99.1366,99.9279 91.5,121.5C 86.8945,136.258 81.2278,150.591 74.5,164.5C 71.2225,167.77 70.2225,171.27 71.5,175C 69.2088,174.189 67.3754,175.023 66,177.5C 62.5776,182.678 58.911,187.678 55,192.5C 40.1897,205.986 28.3564,220.82 19.5,237C 16.1536,246.24 13.8203,255.74 12.5,265.5C 12.6204,267.199 12.9537,268.865 13.5,270.5C 12.0872,274.723 11.4205,279.057 11.5,283.5C 11.6641,286.187 11.4974,288.854 11,291.5C 10.79,289.942 10.29,288.609 9.5,287.5C 8.63237,270.409 10.799,253.743 16,237.5C 19.0812,231.669 22.4145,226.002 26,220.5C 35.8913,208.401 46.2246,196.734 57,185.5C 62.3909,178.441 67.3909,171.107 72,163.5C 81.2585,141.31 90.2585,118.976 99,96.5C 124.223,45.8133 164.39,14.1466 219.5,1.5 Z"/></g>
<g><path style="opacity:1" fill="#e5e8fe" d="M 417.5,118.5 C 429.821,126.179 441.821,134.179 453.5,142.5C 454.833,144.167 456.167,145.833 457.5,147.5C 455.516,147.617 453.85,146.95 452.5,145.5C 450.885,146.154 449.218,146.654 447.5,147C 445.893,148.049 445.227,149.549 445.5,151.5C 435.5,151.5 425.5,151.5 415.5,151.5C 415.5,154.167 415.5,156.833 415.5,159.5C 410.5,159.5 405.5,159.5 400.5,159.5C 400.458,168.776 398.791,176.776 395.5,183.5C 395.5,180.833 395.5,178.167 395.5,175.5C 395.5,175.167 395.5,174.833 395.5,174.5C 395.5,157.833 395.5,141.167 395.5,124.5C 396.323,127.977 396.823,131.644 397,135.5C 397.101,132.3 397.768,129.3 399,126.5C 402.394,127.456 405.894,127.789 409.5,127.5C 409.5,126.167 409.5,124.833 409.5,123.5C 408.167,123.5 406.833,123.5 405.5,123.5C 405.5,122.167 405.5,120.833 405.5,119.5C 407.492,119.672 409.158,119.005 410.5,117.5C 412.731,119.6 415.064,119.933 417.5,118.5 Z"/></g>
<g><path style="opacity:0.454" fill="#fefefe" d="M 48.5,121.5 C 69.9024,123.964 76.7358,135.298 69,155.5C 55.03,168.577 42.6967,167.244 32,151.5C 28.0196,136.038 33.5196,126.038 48.5,121.5 Z"/></g>
<g><path style="opacity:1" fill="#faefff" d="M 271.5,122.5 C 312.658,123.114 353.658,123.781 394.5,124.5C 299.833,124.5 205.167,124.5 110.5,124.5C 111.952,123.698 113.618,123.198 115.5,123C 167.499,122.5 219.499,122.333 271.5,122.5 Z"/></g>
<g><path style="opacity:1" fill="#f3f6fd" d="M 45.5,124.5 C 48.6673,124.675 52.0007,124.841 55.5,125C 66.9754,128.415 71.4754,136.248 69,148.5C 64.6195,158.979 56.7862,162.812 45.5,160C 34.6262,154.744 31.1262,146.244 35,134.5C 37.1376,132.025 39.3042,129.525 41.5,127C 43.8597,128.174 45.193,127.34 45.5,124.5 Z"/></g>
<g><path style="opacity:1" fill="#2c88d3" d="M 110.5,124.5 C 205.167,124.5 299.833,124.5 394.5,124.5C 394.833,124.5 395.167,124.5 395.5,124.5C 395.5,141.167 395.5,157.833 395.5,174.5C 300.332,174.833 205.332,174.499 110.5,173.5C 110.5,169.5 110.5,165.5 110.5,161.5C 110.5,149.167 110.5,136.833 110.5,124.5 Z"/></g>
<g><path style="opacity:1" fill="#eff1fe" d="M 110.5,161.5 C 110.5,165.5 110.5,169.5 110.5,173.5C 109.957,173.56 109.624,173.893 109.5,174.5C 111.969,175.168 114.302,175.835 116.5,176.5C 114.5,176.5 112.5,176.5 110.5,176.5C 110.33,177.822 110.663,178.989 111.5,180C 109.397,180.853 109.397,182.02 111.5,183.5C 111.5,195.5 111.5,207.5 111.5,219.5C 108.833,219.167 106.167,218.833 103.5,218.5C 103.5,215.5 103.5,212.5 103.5,209.5C 101.04,210.937 98.3735,211.937 95.5,212.5C 95.5,213.5 95.5,214.5 95.5,215.5C 90.1667,215.5 84.8333,215.5 79.5,215.5C 79.5,218.167 79.5,220.833 79.5,223.5C 74.1667,223.5 68.8333,223.5 63.5,223.5C 63.5,230.833 63.5,238.167 63.5,245.5C 53.594,247.158 43.594,247.825 33.5,247.5C 32.8333,250.167 32.1667,252.833 31.5,255.5C 27.5,255.5 23.5,255.5 19.5,255.5C 19.5,257.5 19.5,259.5 19.5,261.5C 16.4221,261.587 14.0888,262.92 12.5,265.5C 13.8203,255.74 16.1536,246.24 19.5,237C 28.3564,220.82 40.1897,205.986 55,192.5C 58.911,187.678 62.5776,182.678 66,177.5C 67.3754,175.023 69.2088,174.189 71.5,175C 70.2225,171.27 71.2225,167.77 74.5,164.5C 76.7463,163.79 79.0796,163.29 81.5,163C 78.4494,161.483 77.7828,159.316 79.5,156.5C 83.4659,155.838 87.4659,155.505 91.5,155.5C 91.5,154.167 91.5,152.833 91.5,151.5C 94.8845,151.025 97.2178,152.358 98.5,155.5C 99.4967,148.866 99.83,142.2 99.5,135.5C 102.167,135.5 104.833,135.5 107.5,135.5C 108.107,132.236 108.44,129.236 108.5,126.5C 109.167,138.326 109.833,149.993 110.5,161.5 Z"/></g>
<g><path style="opacity:1" fill="#f7f9fd" d="M -0.5,149.5 C -0.5,144.833 -0.5,140.167 -0.5,135.5C 1.54408,134.969 3.21075,133.802 4.5,132C 18.2213,130.384 23.388,136.217 20,149.5C 13.1351,156.12 6.30176,156.12 -0.5,149.5 Z"/></g>
<g><path style="opacity:1" fill="#e2e5fe" d="M 457.5,147.5 C 467.271,156.019 473.771,166.686 477,179.5C 477.77,180.598 478.603,180.598 479.5,179.5C 479.5,180.167 479.5,180.833 479.5,181.5C 478.503,181.47 477.836,181.97 477.5,183C 478.729,192.866 478.729,202.532 477.5,212C 476.833,212.333 476.167,212.667 475.5,213C 476.207,216.161 476.874,219.328 477.5,222.5C 477.5,223.167 477.5,223.833 477.5,224.5C 476.031,221.9 475.031,222.233 474.5,225.5C 473.732,224.737 473.232,223.737 473,222.5C 464.585,223.483 456.085,223.817 447.5,223.5C 447.5,226.167 447.5,228.833 447.5,231.5C 444.833,231.5 442.167,231.5 439.5,231.5C 439.5,234.167 439.5,236.833 439.5,239.5C 436.833,239.5 434.167,239.5 431.5,239.5C 431.5,242.167 431.5,244.833 431.5,247.5C 423.5,247.5 415.5,247.5 407.5,247.5C 407.5,250.167 407.5,252.833 407.5,255.5C 405.5,255.5 403.5,255.5 401.5,255.5C 401.813,252.753 401.48,250.086 400.5,247.5C 399.668,256.148 399.168,264.814 399,273.5C 397.152,268.245 395.985,262.912 395.5,257.5C 395.5,232.833 395.5,208.167 395.5,183.5C 398.791,176.776 400.458,168.776 400.5,159.5C 405.5,159.5 410.5,159.5 415.5,159.5C 415.5,156.833 415.5,154.167 415.5,151.5C 425.5,151.5 435.5,151.5 445.5,151.5C 445.227,149.549 445.893,148.049 447.5,147C 449.218,146.654 450.885,146.154 452.5,145.5C 453.85,146.95 455.516,147.617 457.5,147.5 Z"/></g>
<g><path style="opacity:0.831" fill="#f1f2fe" d="M 453.5,140.5 C 463.849,148.356 471.849,158.19 477.5,170C 478.566,173.094 479.232,176.26 479.5,179.5C 478.603,180.598 477.77,180.598 477,179.5C 473.771,166.686 467.271,156.019 457.5,147.5C 456.167,145.833 454.833,144.167 453.5,142.5C 453.5,141.833 453.5,141.167 453.5,140.5 Z"/></g>
<g><path style="opacity:1" fill="#faf0ff" d="M 110.5,173.5 C 205.332,174.499 300.332,174.833 395.5,174.5C 395.5,174.833 395.5,175.167 395.5,175.5C 306.759,175.815 218.092,176.815 129.5,178.5C 125.345,176.775 121.011,176.109 116.5,176.5C 114.302,175.835 111.969,175.168 109.5,174.5C 109.624,173.893 109.957,173.56 110.5,173.5 Z"/></g>
<g><path style="opacity:1" fill="#f4f5fe" d="M 395.5,175.5 C 395.5,178.167 395.5,180.833 395.5,183.5C 395.5,208.167 395.5,232.833 395.5,257.5C 395.5,266.833 395.5,276.167 395.5,285.5C 395.5,297.5 395.5,309.5 395.5,321.5C 395.5,332.167 395.5,342.833 395.5,353.5C 395.827,363.348 395.494,373.014 394.5,382.5C 394.667,315.833 394.5,249.166 394,182.5C 393.5,182 393,181.5 392.5,181C 304.167,180.333 215.833,180.333 127.5,181C 121.74,180.878 116.407,181.711 111.5,183.5C 109.397,182.02 109.397,180.853 111.5,180C 110.663,178.989 110.33,177.822 110.5,176.5C 112.5,176.5 114.5,176.5 116.5,176.5C 121.011,176.109 125.345,176.775 129.5,178.5C 218.092,176.815 306.759,175.815 395.5,175.5 Z"/></g>
<g><path style="opacity:1" fill="#fefefe" d="M 394.5,382.5 C 367.5,382.5 340.5,382.5 313.5,382.5C 308.833,382.5 304.167,382.5 299.5,382.5C 237.167,382.5 174.833,382.5 112.5,382.5C 111.518,379.038 111.185,375.371 111.5,371.5C 111.5,351.5 111.5,331.5 111.5,311.5C 111.5,290.167 111.5,268.833 111.5,247.5C 111.5,238.167 111.5,228.833 111.5,219.5C 111.5,207.5 111.5,195.5 111.5,183.5C 116.407,181.711 121.74,180.878 127.5,181C 215.833,180.333 304.167,180.333 392.5,181C 393,181.5 393.5,182 394,182.5C 394.5,249.166 394.667,315.833 394.5,382.5 Z"/></g>
<g><path style="opacity:1" fill="#ebeefe" d="M 111.5,219.5 C 111.5,228.833 111.5,238.167 111.5,247.5C 110.527,245.052 110.194,242.385 110.5,239.5C 109.5,239.5 108.5,239.5 107.5,239.5C 106.833,244.833 106.167,250.167 105.5,255.5C 102.167,255.5 98.8333,255.5 95.5,255.5C 95.5,258.167 95.5,260.833 95.5,263.5C 90.1667,263.5 84.8333,263.5 79.5,263.5C 79.5,266.167 79.5,268.833 79.5,271.5C 74.1667,271.5 68.8333,271.5 63.5,271.5C 63.5,274.167 63.5,276.833 63.5,279.5C 58.1667,279.5 52.8333,279.5 47.5,279.5C 47.5,282.167 47.5,284.833 47.5,287.5C 42.1667,287.5 36.8333,287.5 31.5,287.5C 31.5,290.167 31.5,292.833 31.5,295.5C 28.1667,295.5 24.8333,295.5 21.5,295.5C 21.5,292.833 21.5,290.167 21.5,287.5C 20.1667,287.5 18.8333,287.5 17.5,287.5C 17.0828,284.657 16.0828,281.99 14.5,279.5C 13.1408,280.624 12.1408,281.958 11.5,283.5C 11.4205,279.057 12.0872,274.723 13.5,270.5C 12.9537,268.865 12.6204,267.199 12.5,265.5C 14.0888,262.92 16.4221,261.587 19.5,261.5C 19.5,259.5 19.5,257.5 19.5,255.5C 23.5,255.5 27.5,255.5 31.5,255.5C 32.1667,252.833 32.8333,250.167 33.5,247.5C 43.594,247.825 53.594,247.158 63.5,245.5C 63.5,238.167 63.5,230.833 63.5,223.5C 68.8333,223.5 74.1667,223.5 79.5,223.5C 79.5,220.833 79.5,218.167 79.5,215.5C 84.8333,215.5 90.1667,215.5 95.5,215.5C 95.5,214.5 95.5,213.5 95.5,212.5C 98.3735,211.937 101.04,210.937 103.5,209.5C 103.5,212.5 103.5,215.5 103.5,218.5C 106.167,218.833 108.833,219.167 111.5,219.5 Z"/></g>
<g><path style="opacity:0.31" fill="#f1f3fd" d="M 479.5,181.5 C 482.355,195.302 481.689,208.968 477.5,222.5C 476.874,219.328 476.207,216.161 475.5,213C 476.167,212.667 476.833,212.333 477.5,212C 478.729,202.532 478.729,192.866 477.5,183C 477.836,181.97 478.503,181.47 479.5,181.5 Z"/></g>
<g><path style="opacity:1" fill="#ced4ec" d="M 203.5,208.5 C 217.833,208.5 232.167,208.5 246.5,208.5C 246.5,221.833 246.5,235.167 246.5,248.5C 232.167,248.5 217.833,248.5 203.5,248.5C 203.5,235.167 203.5,221.833 203.5,208.5 Z"/></g>
<g><path style="opacity:1" fill="#cdd3ec" d="M 359.5,209.5 C 359.5,222.5 359.5,235.5 359.5,248.5C 357.833,248.5 356.167,248.5 354.5,248.5C 342.345,247.505 330.011,247.171 317.5,247.5C 317.333,236.828 317.5,226.161 318,215.5C 319.319,213.75 319.819,211.75 319.5,209.5C 332.833,209.5 346.167,209.5 359.5,209.5 Z"/></g>
<g><path style="opacity:1" fill="#e5e9fe" d="M 474.5,225.5 C 473.404,230.38 472.071,235.214 470.5,240C 470.57,240.765 470.903,241.265 471.5,241.5C 471.5,242.167 471.5,242.833 471.5,243.5C 470.85,243.196 470.183,242.863 469.5,242.5C 467.732,244.939 466.399,247.606 465.5,250.5C 464.914,250.291 464.414,249.957 464,249.5C 463.505,251.473 463.338,253.473 463.5,255.5C 462.167,255.5 460.833,255.5 459.5,255.5C 459.5,258.167 459.5,260.833 459.5,263.5C 455.5,263.5 451.5,263.5 447.5,263.5C 447.5,266.167 447.5,268.833 447.5,271.5C 442.167,271.5 436.833,271.5 431.5,271.5C 431.5,274.167 431.5,276.833 431.5,279.5C 426.167,279.5 420.833,279.5 415.5,279.5C 415.5,282.167 415.5,284.833 415.5,287.5C 408.695,287.815 402.029,287.148 395.5,285.5C 395.5,276.167 395.5,266.833 395.5,257.5C 395.985,262.912 397.152,268.245 399,273.5C 399.168,264.814 399.668,256.148 400.5,247.5C 401.48,250.086 401.813,252.753 401.5,255.5C 403.5,255.5 405.5,255.5 407.5,255.5C 407.5,252.833 407.5,250.167 407.5,247.5C 415.5,247.5 423.5,247.5 431.5,247.5C 431.5,244.833 431.5,242.167 431.5,239.5C 434.167,239.5 436.833,239.5 439.5,239.5C 439.5,236.833 439.5,234.167 439.5,231.5C 442.167,231.5 444.833,231.5 447.5,231.5C 447.5,228.833 447.5,226.167 447.5,223.5C 456.085,223.817 464.585,223.483 473,222.5C 473.232,223.737 473.732,224.737 474.5,225.5 Z"/></g>
<g><path style="opacity:0.496" fill="#f8faff" d="M 477.5,224.5 C 475.871,230.392 473.871,236.059 471.5,241.5C 470.903,241.265 470.57,240.765 470.5,240C 472.071,235.214 473.404,230.38 474.5,225.5C 475.031,222.233 476.031,221.9 477.5,224.5 Z"/></g>
<g><path style="opacity:1" fill="#e9ebfe" d="M 111.5,247.5 C 111.5,268.833 111.5,290.167 111.5,311.5C 109.5,311.5 107.5,311.5 105.5,311.5C 105.5,308.833 105.5,306.167 105.5,303.5C 102.167,303.5 98.8333,303.5 95.5,303.5C 95.5,300.833 95.5,298.167 95.5,295.5C 90.1667,295.5 84.8333,295.5 79.5,295.5C 79.5,298.167 79.5,300.833 79.5,303.5C 74.1667,303.5 68.8333,303.5 63.5,303.5C 63.5,306.167 63.5,308.833 63.5,311.5C 58.8333,311.5 54.1667,311.5 49.5,311.5C 49.5,314.167 49.5,316.833 49.5,319.5C 44.3078,321.031 38.9745,321.697 33.5,321.5C 33.8174,324.572 33.4841,327.572 32.5,330.5C 31.5258,328.257 31.1924,325.924 31.5,323.5C 29.5,323.5 27.5,323.5 25.5,323.5C 25.3367,325.857 25.5034,328.19 26,330.5C 26.7504,331.126 27.5838,331.626 28.5,332C 27.4178,333.33 26.7512,334.83 26.5,336.5C 24.1904,333.898 22.3571,330.898 21,327.5C 20.613,323.52 19.7797,320.02 18.5,317C 16.8742,314.913 15.3742,312.747 14,310.5C 13.7216,311.416 13.2216,312.082 12.5,312.5C 10.1287,304.351 9.12875,296.018 9.5,287.5C 10.29,288.609 10.79,289.942 11,291.5C 11.4974,288.854 11.6641,286.187 11.5,283.5C 12.1408,281.958 13.1408,280.624 14.5,279.5C 16.0828,281.99 17.0828,284.657 17.5,287.5C 18.8333,287.5 20.1667,287.5 21.5,287.5C 21.5,290.167 21.5,292.833 21.5,295.5C 24.8333,295.5 28.1667,295.5 31.5,295.5C 31.5,292.833 31.5,290.167 31.5,287.5C 36.8333,287.5 42.1667,287.5 47.5,287.5C 47.5,284.833 47.5,282.167 47.5,279.5C 52.8333,279.5 58.1667,279.5 63.5,279.5C 63.5,276.833 63.5,274.167 63.5,271.5C 68.8333,271.5 74.1667,271.5 79.5,271.5C 79.5,268.833 79.5,266.167 79.5,263.5C 84.8333,263.5 90.1667,263.5 95.5,263.5C 95.5,260.833 95.5,258.167 95.5,255.5C 98.8333,255.5 102.167,255.5 105.5,255.5C 106.167,250.167 106.833,244.833 107.5,239.5C 108.5,239.5 109.5,239.5 110.5,239.5C 110.194,242.385 110.527,245.052 111.5,247.5 Z"/></g>
<g><path style="opacity:1" fill="#d9dded" d="M 260.5,208.5 C 260.5,221.5 260.5,234.5 260.5,247.5C 274.5,247.5 288.5,247.5 302.5,247.5C 302.5,234.833 302.5,222.167 302.5,209.5C 289.323,209.829 276.323,209.495 263.5,208.5C 276.833,208.5 290.167,208.5 303.5,208.5C 303.5,221.833 303.5,235.167 303.5,248.5C 288.833,248.5 274.167,248.5 259.5,248.5C 259.171,234.99 259.504,221.656 260.5,208.5 Z"/></g>
<g><path style="opacity:1" fill="#cdd4ec" d="M 260.5,208.5 C 261.5,208.5 262.5,208.5 263.5,208.5C 276.323,209.495 289.323,209.829 302.5,209.5C 302.5,222.167 302.5,234.833 302.5,247.5C 288.5,247.5 274.5,247.5 260.5,247.5C 260.5,234.5 260.5,221.5 260.5,208.5 Z"/></g>
<g><path style="opacity:1" fill="#d5d9e7" d="M 359.5,209.5 C 346.167,209.5 332.833,209.5 319.5,209.5C 319.819,211.75 319.319,213.75 318,215.5C 317.5,226.161 317.333,236.828 317.5,247.5C 330.011,247.171 342.345,247.505 354.5,248.5C 341.833,248.5 329.167,248.5 316.5,248.5C 316.5,235.167 316.5,221.833 316.5,208.5C 331.01,208.171 345.343,208.504 359.5,209.5 Z"/></g>
<g><path style="opacity:1" fill="#e9ebfe" d="M 471.5,243.5 C 469.2,250.996 467.534,258.663 466.5,266.5C 465.85,266.196 465.183,265.863 464.5,265.5C 463.692,267.423 463.192,269.423 463,271.5C 462.333,272.833 461.667,272.833 461,271.5C 460.289,273.899 460.456,276.232 461.5,278.5C 460.559,278.489 459.892,278.989 459.5,280C 459.59,284.166 459.924,288.332 460.5,292.5C 459.373,293.122 458.373,293.955 457.5,295C 448.84,295.5 440.173,295.666 431.5,295.5C 431.5,298.167 431.5,300.833 431.5,303.5C 426.167,303.5 420.833,303.5 415.5,303.5C 415.5,306.167 415.5,308.833 415.5,311.5C 410.833,311.5 406.167,311.5 401.5,311.5C 400.44,324.222 398.94,336.888 397,349.5C 396.83,339.991 396.33,330.658 395.5,321.5C 395.5,309.5 395.5,297.5 395.5,285.5C 402.029,287.148 408.695,287.815 415.5,287.5C 415.5,284.833 415.5,282.167 415.5,279.5C 420.833,279.5 426.167,279.5 431.5,279.5C 431.5,276.833 431.5,274.167 431.5,271.5C 436.833,271.5 442.167,271.5 447.5,271.5C 447.5,268.833 447.5,266.167 447.5,263.5C 451.5,263.5 455.5,263.5 459.5,263.5C 459.5,260.833 459.5,258.167 459.5,255.5C 460.833,255.5 462.167,255.5 463.5,255.5C 463.338,253.473 463.505,251.473 464,249.5C 464.414,249.957 464.914,250.291 465.5,250.5C 466.399,247.606 467.732,244.939 469.5,242.5C 470.183,242.863 470.85,243.196 471.5,243.5 Z"/></g>
<g><path style="opacity:1" fill="#cdd4ec" d="M 203.5,261.5 C 217.833,261.5 232.167,261.5 246.5,261.5C 246.5,274.833 246.5,288.167 246.5,301.5C 232.167,301.5 217.833,301.5 203.5,301.5C 203.5,288.167 203.5,274.833 203.5,261.5 Z"/></g>
<g><path style="opacity:1" fill="#cdd4ec" d="M 316.5,261.5 C 330.833,261.5 345.167,261.5 359.5,261.5C 359.5,274.833 359.5,288.167 359.5,301.5C 345.167,301.5 330.833,301.5 316.5,301.5C 316.5,288.167 316.5,274.833 316.5,261.5 Z"/></g>
<g><path style="opacity:0.429" fill="#fdfefe" d="M 499.5,273.5 C 499.5,277.833 499.5,282.167 499.5,286.5C 491.924,297.217 483.09,298.217 473,289.5C 468.142,281.09 469.309,273.59 476.5,267C 486.36,262.238 494.027,264.405 499.5,273.5 Z"/></g>
<g><path style="opacity:1" fill="#ebeefd" d="M 484.5,266.5 C 497.067,269.332 500.567,276.665 495,288.5C 493.229,289.304 491.729,290.471 490.5,292C 478.517,294.025 472.684,288.859 473,276.5C 475.503,271.488 479.337,268.154 484.5,266.5 Z"/></g>
<g><path style="opacity:1" fill="#dce1f2" d="M 259.5,261.5 C 274.167,261.5 288.833,261.5 303.5,261.5C 303.5,274.833 303.5,288.167 303.5,301.5C 288.833,301.5 274.167,301.5 259.5,301.5C 259.5,288.167 259.5,274.833 259.5,261.5 Z"/></g>
<g><path style="opacity:1" fill="#cdd4ec" d="M 260.5,262.5 C 274.5,262.5 288.5,262.5 302.5,262.5C 302.5,275.167 302.5,287.833 302.5,300.5C 288.363,301.057 274.363,300.39 260.5,298.5C 260.5,286.5 260.5,274.5 260.5,262.5 Z"/></g>
<g><path style="opacity:1" fill="#dde1ef" d="M 146.5,261.5 C 161.167,261.5 175.833,261.5 190.5,261.5C 190.5,274.833 190.5,288.167 190.5,301.5C 175.833,301.5 161.167,301.5 146.5,301.5C 146.5,288.167 146.5,274.833 146.5,261.5 Z"/></g>
<g><path style="opacity:1" fill="#ccd3ec" d="M 147.5,262.5 C 161.5,262.5 175.5,262.5 189.5,262.5C 189.5,275.167 189.5,287.833 189.5,300.5C 175.5,300.5 161.5,300.5 147.5,300.5C 147.5,287.833 147.5,275.167 147.5,262.5 Z"/></g>
<g><path style="opacity:1" fill="#ebeefe" d="M 460.5,292.5 C 460.586,293.496 460.252,294.329 459.5,295C 460.167,295.333 460.833,295.667 461.5,296C 460.788,298.027 459.788,299.027 458.5,299C 458.95,300.285 459.617,301.452 460.5,302.5C 460.033,307.695 459.699,313.361 459.5,319.5C 458.167,319.5 456.833,319.5 455.5,319.5C 455.5,324.833 455.5,330.167 455.5,335.5C 447.5,335.5 439.5,335.5 431.5,335.5C 431.5,338.167 431.5,340.833 431.5,343.5C 422.167,343.5 412.833,343.5 403.5,343.5C 403.5,346.167 403.5,348.833 403.5,351.5C 400.583,351.365 397.916,352.032 395.5,353.5C 395.5,342.833 395.5,332.167 395.5,321.5C 396.33,330.658 396.83,339.991 397,349.5C 398.94,336.888 400.44,324.222 401.5,311.5C 406.167,311.5 410.833,311.5 415.5,311.5C 415.5,308.833 415.5,306.167 415.5,303.5C 420.833,303.5 426.167,303.5 431.5,303.5C 431.5,300.833 431.5,298.167 431.5,295.5C 440.173,295.666 448.84,295.5 457.5,295C 458.373,293.955 459.373,293.122 460.5,292.5 Z"/></g>
<g><path style="opacity:1" fill="#e5e9fe" d="M 111.5,311.5 C 111.5,331.5 111.5,351.5 111.5,371.5C 110.503,354.341 110.17,337.008 110.5,319.5C 109.5,319.5 108.5,319.5 107.5,319.5C 107.5,324.833 107.5,330.167 107.5,335.5C 103.5,335.5 99.5,335.5 95.5,335.5C 95.5,338.167 95.5,340.833 95.5,343.5C 90.1667,343.5 84.8333,343.5 79.5,343.5C 79.5,346.167 79.5,348.833 79.5,351.5C 74.1667,351.5 68.8333,351.5 63.5,351.5C 63.5,355.5 63.5,359.5 63.5,363.5C 61.0637,363.683 58.897,363.016 57,361.5C 56.1667,362.333 55.3333,363.167 54.5,364C 55.3366,365.011 55.67,366.178 55.5,367.5C 51.7217,365.195 48.2217,362.528 45,359.5C 44.5357,360.094 44.369,360.761 44.5,361.5C 43.5,361.167 42.8333,360.5 42.5,359.5C 43.525,359.103 43.6917,358.437 43,357.5C 35.7356,351.753 30.2356,344.753 26.5,336.5C 26.7512,334.83 27.4178,333.33 28.5,332C 27.5838,331.626 26.7504,331.126 26,330.5C 25.5034,328.19 25.3367,325.857 25.5,323.5C 27.5,323.5 29.5,323.5 31.5,323.5C 31.1924,325.924 31.5258,328.257 32.5,330.5C 33.4841,327.572 33.8174,324.572 33.5,321.5C 38.9745,321.697 44.3078,321.031 49.5,319.5C 49.5,316.833 49.5,314.167 49.5,311.5C 54.1667,311.5 58.8333,311.5 63.5,311.5C 63.5,308.833 63.5,306.167 63.5,303.5C 68.8333,303.5 74.1667,303.5 79.5,303.5C 79.5,300.833 79.5,298.167 79.5,295.5C 84.8333,295.5 90.1667,295.5 95.5,295.5C 95.5,298.167 95.5,300.833 95.5,303.5C 98.8333,303.5 102.167,303.5 105.5,303.5C 105.5,306.167 105.5,308.833 105.5,311.5C 107.5,311.5 109.5,311.5 111.5,311.5 Z"/></g>
<g><path style="opacity:1" fill="#d1d6e7" d="M 203.5,353.5 C 217.142,352.739 230.809,352.239 244.5,352C 243.678,340.576 243.178,329.076 243,317.5C 242.5,317 242,316.5 241.5,316C 228.807,314.931 216.14,315.431 203.5,317.5C 203.5,316.5 203.5,315.5 203.5,314.5C 217.833,314.5 232.167,314.5 246.5,314.5C 246.5,327.833 246.5,341.167 246.5,354.5C 231.99,354.829 217.657,354.496 203.5,353.5 Z"/></g>
<g><path style="opacity:1" fill="#e3e5fe" d="M 111.5,371.5 C 111.185,375.371 111.518,379.038 112.5,382.5C 133.327,383.497 154.327,383.831 175.5,383.5C 176.568,384.434 177.901,384.768 179.5,384.5C 179.5,385.5 179.5,386.5 179.5,387.5C 178.167,387.5 176.833,387.5 175.5,387.5C 175.5,388.833 175.5,390.167 175.5,391.5C 170.167,391.5 164.833,391.5 159.5,391.5C 159.5,394.167 159.5,396.833 159.5,399.5C 154.167,399.5 148.833,399.5 143.5,399.5C 143.5,403.5 143.5,407.5 143.5,411.5C 138.167,411.5 132.833,411.5 127.5,411.5C 127.5,415.5 127.5,419.5 127.5,423.5C 120.382,422.895 113.548,423.562 107,425.5C 103.9,424.116 102.733,421.949 103.5,419C 102.423,418.53 101.423,418.697 100.5,419.5C 95.538,409.428 89.8713,399.595 83.5,390C 82.5632,389.308 81.8966,389.475 81.5,390.5C 80.8333,390.5 80.5,390.167 80.5,389.5C 80.6107,388.883 80.944,388.383 81.5,388C 79.5394,385.037 77.206,382.371 74.5,380C 73.4232,379.53 72.4232,379.697 71.5,380.5C 70.8333,380.5 70.5,380.167 70.5,379.5C 71.7733,378.923 71.7733,378.257 70.5,377.5C 65.4385,374.077 60.4385,370.744 55.5,367.5C 55.67,366.178 55.3366,365.011 54.5,364C 55.3333,363.167 56.1667,362.333 57,361.5C 58.897,363.016 61.0637,363.683 63.5,363.5C 63.5,359.5 63.5,355.5 63.5,351.5C 68.8333,351.5 74.1667,351.5 79.5,351.5C 79.5,348.833 79.5,346.167 79.5,343.5C 84.8333,343.5 90.1667,343.5 95.5,343.5C 95.5,340.833 95.5,338.167 95.5,335.5C 99.5,335.5 103.5,335.5 107.5,335.5C 107.5,330.167 107.5,324.833 107.5,319.5C 108.5,319.5 109.5,319.5 110.5,319.5C 110.17,337.008 110.503,354.341 111.5,371.5 Z"/></g>
<g><path style="opacity:1" fill="#eff1fe" d="M 466.5,266.5 C 464.489,292.099 462.823,317.765 461.5,343.5C 460.883,343.389 460.383,343.056 460,342.5C 459.995,345.229 458.829,347.229 456.5,348.5C 458.022,350.156 457.689,351.323 455.5,352C 456.516,352.519 457.182,353.353 457.5,354.5C 456.801,361.48 454.801,367.98 451.5,374C 452.018,376.921 451.018,379.421 448.5,381.5C 448.565,381.062 448.399,380.728 448,380.5C 444.985,381.088 442.818,382.755 441.5,385.5C 444.243,387.698 444.077,389.698 441,391.5C 432.65,391.414 424.15,391.414 415.5,391.5C 415.5,394.167 415.5,396.833 415.5,399.5C 410.167,399.5 404.833,399.5 399.5,399.5C 399.5,402.167 399.5,404.833 399.5,407.5C 394.167,407.5 388.833,407.5 383.5,407.5C 383.5,412.833 383.5,418.167 383.5,423.5C 372.833,423.5 362.167,423.5 351.5,423.5C 351.5,424.833 351.5,426.167 351.5,427.5C 346.87,427.308 342.37,427.975 338,429.5C 337.167,429.333 336.333,429.167 335.5,429C 336.451,428.282 336.617,427.449 336,426.5C 329.263,428.105 322.763,428.439 316.5,427.5C 305.985,428.402 295.318,429.735 284.5,431.5C 277.951,433.79 271.618,436.456 265.5,439.5C 266.787,437.363 267.621,435.03 268,432.5C 269.011,431.663 270.178,431.33 271.5,431.5C 271.5,428.833 271.5,426.167 271.5,423.5C 282.167,423.5 292.833,423.5 303.5,423.5C 303.5,420.833 303.5,418.167 303.5,415.5C 302.167,415.5 300.833,415.5 299.5,415.5C 299.5,414.167 299.5,412.833 299.5,411.5C 300.833,411.5 302.167,411.5 303.5,411.5C 303.5,410.167 303.5,408.833 303.5,407.5C 308.833,407.5 314.167,407.5 319.5,407.5C 319.5,404.833 319.5,402.167 319.5,399.5C 324.833,399.5 330.167,399.5 335.5,399.5C 335.5,398.167 335.5,396.833 335.5,395.5C 340.694,395.058 340.694,394.058 335.5,392.5C 340.694,390.942 340.694,389.942 335.5,389.5C 335.739,387.533 335.406,385.699 334.5,384C 327.321,383.829 320.321,383.329 313.5,382.5C 340.5,382.5 367.5,382.5 394.5,382.5C 395.494,373.014 395.827,363.348 395.5,353.5C 397.916,352.032 400.583,351.365 403.5,351.5C 403.5,348.833 403.5,346.167 403.5,343.5C 412.833,343.5 422.167,343.5 431.5,343.5C 431.5,340.833 431.5,338.167 431.5,335.5C 439.5,335.5 447.5,335.5 455.5,335.5C 455.5,330.167 455.5,324.833 455.5,319.5C 456.833,319.5 458.167,319.5 459.5,319.5C 459.699,313.361 460.033,307.695 460.5,302.5C 459.617,301.452 458.95,300.285 458.5,299C 459.788,299.027 460.788,298.027 461.5,296C 460.833,295.667 460.167,295.333 459.5,295C 460.252,294.329 460.586,293.496 460.5,292.5C 459.924,288.332 459.59,284.166 459.5,280C 459.892,278.989 460.559,278.489 461.5,278.5C 460.456,276.232 460.289,273.899 461,271.5C 461.667,272.833 462.333,272.833 463,271.5C 463.192,269.423 463.692,267.423 464.5,265.5C 465.183,265.863 465.85,266.196 466.5,266.5 Z"/></g>
<g><path style="opacity:1" fill="#ccd4ed" d="M 148.5,314.5 C 162.344,314.171 176.01,314.504 189.5,315.5C 189.5,328.167 189.5,340.833 189.5,353.5C 175.5,353.5 161.5,353.5 147.5,353.5C 147.186,340.421 147.52,327.421 148.5,314.5 Z"/></g>
<g><path style="opacity:1" fill="#cdd4ed" d="M 203.5,353.5 C 203.5,341.5 203.5,329.5 203.5,317.5C 216.14,315.431 228.807,314.931 241.5,316C 242,316.5 242.5,317 243,317.5C 243.178,329.076 243.678,340.576 244.5,352C 230.809,352.239 217.142,352.739 203.5,353.5 Z"/></g>
<g><path style="opacity:1" fill="#cdd4ec" d="M 259.5,314.5 C 274.167,314.5 288.833,314.5 303.5,314.5C 303.5,327.833 303.5,341.167 303.5,354.5C 289.163,354.667 274.829,354.5 260.5,354C 259.511,340.913 259.177,327.746 259.5,314.5 Z"/></g>
<g><path style="opacity:1" fill="#dde2ee" d="M 148.5,314.5 C 147.52,327.421 147.186,340.421 147.5,353.5C 161.5,353.5 175.5,353.5 189.5,353.5C 189.5,340.833 189.5,328.167 189.5,315.5C 190.495,328.323 190.829,341.323 190.5,354.5C 175.833,354.5 161.167,354.5 146.5,354.5C 145.852,340.791 146.519,327.458 148.5,314.5 Z"/></g>
<g><path style="opacity:0.516" fill="#fdfdfe" d="M 461.5,343.5 C 459.799,379.301 443.132,405.135 411.5,421C 386.723,431.801 361.056,435.634 334.5,432.5C 335.222,432.082 335.722,431.416 336,430.5C 336.333,431.167 336.667,431.833 337,432.5C 349.954,430.861 363.121,429.695 376.5,429C 388.105,426.29 399.105,422.956 409.5,419C 412.139,416.154 415.472,414.487 419.5,414C 422.102,413.065 423.602,411.232 424,408.5C 424.718,409.451 425.551,409.617 426.5,409C 436.336,401.825 443.669,392.659 448.5,381.5C 451.018,379.421 452.018,376.921 451.5,374C 454.801,367.98 456.801,361.48 457.5,354.5C 457.182,353.353 456.516,352.519 455.5,352C 457.689,351.323 458.022,350.156 456.5,348.5C 458.829,347.229 459.995,345.229 460,342.5C 460.383,343.056 460.883,343.389 461.5,343.5 Z"/></g>
<g><path style="opacity:0.735" fill="#f7f8fe" d="M 26.5,336.5 C 30.2356,344.753 35.7356,351.753 43,357.5C 43.6917,358.437 43.525,359.103 42.5,359.5C 27.7648,347.051 17.7648,331.384 12.5,312.5C 13.2216,312.082 13.7216,311.416 14,310.5C 15.3742,312.747 16.8742,314.913 18.5,317C 19.7797,320.02 20.613,323.52 21,327.5C 22.3571,330.898 24.1904,333.898 26.5,336.5 Z"/></g>
<g><path style="opacity:0.574" fill="#f8faff" d="M 55.5,367.5 C 60.4385,370.744 65.4385,374.077 70.5,377.5C 71.7733,378.257 71.7733,378.923 70.5,379.5C 60.7793,374.977 52.1127,368.977 44.5,361.5C 44.369,360.761 44.5357,360.094 45,359.5C 48.2217,362.528 51.7217,365.195 55.5,367.5 Z"/></g>
<g><path style="opacity:0.762" fill="#f8faff" d="M 80.5,389.5 C 77.5,386.5 74.5,383.5 71.5,380.5C 72.4232,379.697 73.4232,379.53 74.5,380C 77.206,382.371 79.5394,385.037 81.5,388C 80.944,388.383 80.6107,388.883 80.5,389.5 Z"/></g>
<g><path style="opacity:1" fill="#e8ebfe" d="M 112.5,382.5 C 174.833,382.5 237.167,382.5 299.5,382.5C 305.947,383.936 312.614,384.603 319.5,384.5C 319.5,386.833 319.5,389.167 319.5,391.5C 318.167,391.5 316.833,391.5 315.5,391.5C 315.5,390.167 315.5,388.833 315.5,387.5C 306.167,387.5 296.833,387.5 287.5,387.5C 287.5,388.833 287.5,390.167 287.5,391.5C 282.167,391.5 276.833,391.5 271.5,391.5C 271.5,394.167 271.5,396.833 271.5,399.5C 266.167,399.5 260.833,399.5 255.5,399.5C 255.5,402.167 255.5,404.833 255.5,407.5C 250.167,407.5 244.833,407.5 239.5,407.5C 239.5,410.167 239.5,412.833 239.5,415.5C 234.167,415.5 228.833,415.5 223.5,415.5C 223.5,418.167 223.5,420.833 223.5,423.5C 218.167,423.5 212.833,423.5 207.5,423.5C 207.5,428.833 207.5,434.167 207.5,439.5C 202.167,439.5 196.833,439.5 191.5,439.5C 191.5,442.167 191.5,444.833 191.5,447.5C 186.167,447.5 180.833,447.5 175.5,447.5C 175.5,450.167 175.5,452.833 175.5,455.5C 170.167,455.5 164.833,455.5 159.5,455.5C 159.5,458.167 159.5,460.833 159.5,463.5C 155.5,463.5 151.5,463.5 147.5,463.5C 147.5,464.5 147.5,465.5 147.5,466.5C 144.461,465.99 141.461,465.323 138.5,464.5C 129.396,460.723 121.73,455.056 115.5,447.5C 117.044,447.703 118.378,448.37 119.5,449.5C 120.696,449.154 120.696,448.654 119.5,448C 122.146,447.503 124.813,447.336 127.5,447.5C 127.5,448.833 127.5,450.167 127.5,451.5C 132.833,451.5 138.167,451.5 143.5,451.5C 143.5,447.5 143.5,443.5 143.5,439.5C 148.833,439.5 154.167,439.5 159.5,439.5C 159.5,436.833 159.5,434.167 159.5,431.5C 164.833,431.5 170.167,431.5 175.5,431.5C 175.5,428.833 175.5,426.167 175.5,423.5C 180.833,423.5 186.167,423.5 191.5,423.5C 191.5,420.833 191.5,418.167 191.5,415.5C 196.167,415.5 200.833,415.5 205.5,415.5C 206.167,410.167 206.833,404.833 207.5,399.5C 212.833,399.5 218.167,399.5 223.5,399.5C 223.5,396.833 223.5,394.167 223.5,391.5C 228.833,391.5 234.167,391.5 239.5,391.5C 239.5,390.167 239.5,388.833 239.5,387.5C 232.833,387.5 226.167,387.5 219.5,387.5C 219.5,386.167 219.5,384.833 219.5,383.5C 204.833,383.5 190.167,383.5 175.5,383.5C 154.327,383.831 133.327,383.497 112.5,382.5 Z"/></g>
<g><path style="opacity:1" fill="#ebeefe" d="M 299.5,382.5 C 304.167,382.5 308.833,382.5 313.5,382.5C 320.321,383.329 327.321,383.829 334.5,384C 335.406,385.699 335.739,387.533 335.5,389.5C 340.694,389.942 340.694,390.942 335.5,392.5C 340.694,394.058 340.694,395.058 335.5,395.5C 335.5,396.833 335.5,398.167 335.5,399.5C 330.167,399.5 324.833,399.5 319.5,399.5C 319.5,402.167 319.5,404.833 319.5,407.5C 314.167,407.5 308.833,407.5 303.5,407.5C 303.5,408.833 303.5,410.167 303.5,411.5C 302.167,411.5 300.833,411.5 299.5,411.5C 299.5,412.833 299.5,414.167 299.5,415.5C 300.833,415.5 302.167,415.5 303.5,415.5C 303.5,418.167 303.5,420.833 303.5,423.5C 292.833,423.5 282.167,423.5 271.5,423.5C 271.5,426.167 271.5,428.833 271.5,431.5C 270.178,431.33 269.011,431.663 268,432.5C 267.621,435.03 266.787,437.363 265.5,439.5C 243.555,453.492 219.889,463.826 194.5,470.5C 184.879,471.762 175.379,472.429 166,472.5C 160.63,471.984 155.63,470.317 151,467.5C 150,467.833 149,468.167 148,468.5C 144.461,467.68 141.294,466.346 138.5,464.5C 141.461,465.323 144.461,465.99 147.5,466.5C 147.5,465.5 147.5,464.5 147.5,463.5C 151.5,463.5 155.5,463.5 159.5,463.5C 159.5,460.833 159.5,458.167 159.5,455.5C 164.833,455.5 170.167,455.5 175.5,455.5C 175.5,452.833 175.5,450.167 175.5,447.5C 180.833,447.5 186.167,447.5 191.5,447.5C 191.5,444.833 191.5,442.167 191.5,439.5C 196.833,439.5 202.167,439.5 207.5,439.5C 207.5,434.167 207.5,428.833 207.5,423.5C 212.833,423.5 218.167,423.5 223.5,423.5C 223.5,420.833 223.5,418.167 223.5,415.5C 228.833,415.5 234.167,415.5 239.5,415.5C 239.5,412.833 239.5,410.167 239.5,407.5C 244.833,407.5 250.167,407.5 255.5,407.5C 255.5,404.833 255.5,402.167 255.5,399.5C 260.833,399.5 266.167,399.5 271.5,399.5C 271.5,396.833 271.5,394.167 271.5,391.5C 276.833,391.5 282.167,391.5 287.5,391.5C 287.5,390.167 287.5,388.833 287.5,387.5C 296.833,387.5 306.167,387.5 315.5,387.5C 315.5,388.833 315.5,390.167 315.5,391.5C 316.833,391.5 318.167,391.5 319.5,391.5C 319.5,389.167 319.5,386.833 319.5,384.5C 312.614,384.603 305.947,383.936 299.5,382.5 Z"/></g>
<g><path style="opacity:1" fill="#e5e9fe" d="M 175.5,383.5 C 190.167,383.5 204.833,383.5 219.5,383.5C 219.5,384.833 219.5,386.167 219.5,387.5C 226.167,387.5 232.833,387.5 239.5,387.5C 239.5,388.833 239.5,390.167 239.5,391.5C 234.167,391.5 228.833,391.5 223.5,391.5C 223.5,394.167 223.5,396.833 223.5,399.5C 218.167,399.5 212.833,399.5 207.5,399.5C 206.833,404.833 206.167,410.167 205.5,415.5C 200.833,415.5 196.167,415.5 191.5,415.5C 191.5,418.167 191.5,420.833 191.5,423.5C 186.167,423.5 180.833,423.5 175.5,423.5C 175.5,426.167 175.5,428.833 175.5,431.5C 170.167,431.5 164.833,431.5 159.5,431.5C 159.5,434.167 159.5,436.833 159.5,439.5C 154.167,439.5 148.833,439.5 143.5,439.5C 143.5,443.5 143.5,447.5 143.5,451.5C 138.167,451.5 132.833,451.5 127.5,451.5C 127.5,450.167 127.5,448.833 127.5,447.5C 124.813,447.336 122.146,447.503 119.5,448C 120.696,448.654 120.696,449.154 119.5,449.5C 118.378,448.37 117.044,447.703 115.5,447.5C 109.484,438.806 104.484,429.473 100.5,419.5C 101.423,418.697 102.423,418.53 103.5,419C 102.733,421.949 103.9,424.116 107,425.5C 113.548,423.562 120.382,422.895 127.5,423.5C 127.5,419.5 127.5,415.5 127.5,411.5C 132.833,411.5 138.167,411.5 143.5,411.5C 143.5,407.5 143.5,403.5 143.5,399.5C 148.833,399.5 154.167,399.5 159.5,399.5C 159.5,396.833 159.5,394.167 159.5,391.5C 164.833,391.5 170.167,391.5 175.5,391.5C 175.5,390.167 175.5,388.833 175.5,387.5C 176.833,387.5 178.167,387.5 179.5,387.5C 179.5,386.5 179.5,385.5 179.5,384.5C 177.901,384.768 176.568,384.434 175.5,383.5 Z"/></g>
<g><path style="opacity:1" fill="#f1f4fd" d="M 448.5,381.5 C 443.669,392.659 436.336,401.825 426.5,409C 425.551,409.617 424.718,409.451 424,408.5C 423.602,411.232 422.102,413.065 419.5,414C 415.472,414.487 412.139,416.154 409.5,419C 399.105,422.956 388.105,426.29 376.5,429C 363.121,429.695 349.954,430.861 337,432.5C 336.667,431.833 336.333,431.167 336,430.5C 335.722,431.416 335.222,432.082 334.5,432.5C 332.732,430.804 330.565,429.47 328,428.5C 323.942,429.928 320.109,429.595 316.5,427.5C 322.763,428.439 329.263,428.105 336,426.5C 336.617,427.449 336.451,428.282 335.5,429C 336.333,429.167 337.167,429.333 338,429.5C 342.37,427.975 346.87,427.308 351.5,427.5C 351.5,426.167 351.5,424.833 351.5,423.5C 362.167,423.5 372.833,423.5 383.5,423.5C 383.5,418.167 383.5,412.833 383.5,407.5C 388.833,407.5 394.167,407.5 399.5,407.5C 399.5,404.833 399.5,402.167 399.5,399.5C 404.833,399.5 410.167,399.5 415.5,399.5C 415.5,396.833 415.5,394.167 415.5,391.5C 424.15,391.414 432.65,391.414 441,391.5C 444.077,389.698 444.243,387.698 441.5,385.5C 442.818,382.755 444.985,381.088 448,380.5C 448.399,380.728 448.565,381.062 448.5,381.5 Z"/></g>
<g><path style="opacity:0.361" fill="#fcfdfe" d="M 46.5,423.5 C 47.5,423.5 48.5,423.5 49.5,423.5C 49.8118,429.329 52.4785,433.829 57.5,437C 72.2961,441.609 81.2961,436.442 84.5,421.5C 83.7533,409.92 77.5866,403.92 66,403.5C 56.6967,404.465 50.6967,409.465 48,418.5C 47.7216,417.584 47.2216,416.918 46.5,416.5C 53.6656,400.534 64.9989,397.034 80.5,406C 88.7483,416.436 88.415,426.602 79.5,436.5C 66.6435,444.43 56.1435,442.097 48,429.5C 47.187,427.564 46.687,425.564 46.5,423.5 Z"/></g>
<g><path style="opacity:1" fill="#e3e5fd" d="M 46.5,423.5 C 46.5,421.167 46.5,418.833 46.5,416.5C 47.2216,416.918 47.7216,417.584 48,418.5C 50.6967,409.465 56.6967,404.465 66,403.5C 77.5866,403.92 83.7533,409.92 84.5,421.5C 81.2961,436.442 72.2961,441.609 57.5,437C 52.4785,433.829 49.8118,429.329 49.5,423.5C 48.5,423.5 47.5,423.5 46.5,423.5 Z"/></g>
<g><path style="opacity:0.5" fill="#fcfcfe" d="M 100.5,419.5 C 104.484,429.473 109.484,438.806 115.5,447.5C 121.73,455.056 129.396,460.723 138.5,464.5C 141.294,466.346 144.461,467.68 148,468.5C 149,468.167 150,467.833 151,467.5C 155.63,470.317 160.63,471.984 166,472.5C 175.379,472.429 184.879,471.762 194.5,470.5C 219.889,463.826 243.555,453.492 265.5,439.5C 271.618,436.456 277.951,433.79 284.5,431.5C 295.318,429.735 305.985,428.402 316.5,427.5C 320.109,429.595 323.942,429.928 328,428.5C 330.565,429.47 332.732,430.804 334.5,432.5C 314.808,429.916 295.475,431.416 276.5,437C 263.404,443.716 250.404,450.716 237.5,458C 219.481,466.895 200.481,472.561 180.5,475C 153.027,477.18 130.194,468.014 112,447.5C 104.791,434.414 98.1239,421.081 92,407.5C 88.489,401.805 84.989,396.139 81.5,390.5C 81.8966,389.475 82.5632,389.308 83.5,390C 89.8713,399.595 95.538,409.428 100.5,419.5 Z"/></g>
<g><path style="opacity:0.37" fill="#fefefe" d="M 81.5,446.5 C 91.9523,445.266 95.7856,449.6 93,459.5C 85.0518,465.925 79.5518,464.258 76.5,454.5C 76.7266,450.819 78.3933,448.152 81.5,446.5 Z"/></g>
<g><path style="opacity:0.478" fill="#fdfdfe" d="M 312.5,499.5 C 305.167,499.5 297.833,499.5 290.5,499.5C 275.273,489.635 271.439,476.301 279,459.5C 287.372,448.748 298.205,445.248 311.5,449C 325.982,456.141 331.148,467.641 327,483.5C 324.347,490.979 319.513,496.312 312.5,499.5 Z"/></g>
<g><path style="opacity:0.999" fill="#e8e9fb" d="M 82.5,448.5 C 91.8176,448.655 93.8176,452.488 88.5,460C 81.0166,461.689 78.1833,458.856 80,451.5C 81.045,450.627 81.8783,449.627 82.5,448.5 Z"/></g>
<g><path style="opacity:1" fill="#f1f4fd" d="M 298.5,449.5 C 307.161,449.01 314.661,452.01 321,458.5C 322.039,460.746 323.206,462.913 324.5,465C 325.609,471.339 325.609,477.505 324.5,483.5C 323.333,485.167 322.167,486.833 321,488.5C 319.334,487.66 319.167,488.16 320.5,490C 319.531,491.758 318.364,492.258 317,491.5C 315.921,494.469 313.754,496.135 310.5,496.5C 309.325,495.145 308.325,495.312 307.5,497C 287.389,498.719 277.389,489.552 277.5,469.5C 280.686,458.643 287.686,451.977 298.5,449.5 Z"/></g>
</svg>
