<?xml version="1.0" encoding="UTF-8"?>
<!DOCTYPE svg PUBLIC "-//W3C//DTD SVG 1.1//EN" "http://www.w3.org/Graphics/SVG/1.1/DTD/svg11.dtd">
<svg xmlns="http://www.w3.org/2000/svg" version="1.1" width="456px" height="456px" style="shape-rendering:geometricPrecision; text-rendering:geometricPrecision; image-rendering:optimizeQuality; fill-rule:evenodd; clip-rule:evenodd" xmlns:xlink="http://www.w3.org/1999/xlink">
<g><path style="opacity:0.997" fill="#f5f7fe" d="M 358.5,105.5 C 357.749,106.573 356.749,106.74 355.5,106C 353.266,104.25 350.932,102.75 348.5,101.5C 343.192,98.0992 337.859,94.5992 332.5,91C 327.38,85.8103 322.38,80.6437 317.5,75.5C 316.899,72.295 315.732,69.295 314,66.5C 305.51,55.6799 296.677,45.1799 287.5,35C 284.785,33.0922 281.785,31.7589 278.5,31C 277.635,29.6412 276.635,28.4745 275.5,27.5C 270.281,25.2614 265.115,22.9281 260,20.5C 258.833,20.6667 257.667,20.8333 256.5,21C 256.273,22.1353 255.94,23.302 255.5,24.5C 254.852,22.8508 253.852,21.5175 252.5,20.5C 250.629,21.767 248.796,21.767 247,20.5C 245.98,21.8905 245.147,23.3905 244.5,25C 240.121,23.8842 238.454,25.7175 239.5,30.5C 235.833,30.5 232.167,30.5 228.5,30.5C 228.5,32.1667 228.5,33.8333 228.5,35.5C 224.833,35.5 221.167,35.5 217.5,35.5C 217.739,37.4672 217.406,39.3005 216.5,41C 213.183,41.4983 209.85,41.665 206.5,41.5C 207.068,46.5489 206.068,51.2156 203.5,55.5C 197.138,57.932 190.472,58.932 183.5,58.5C 183.739,60.4672 183.406,62.3005 182.5,64C 179.183,64.4983 175.85,64.665 172.5,64.5C 172.5,66.1667 172.5,67.8333 172.5,69.5C 168.833,69.5 165.167,69.5 161.5,69.5C 161.5,71.1667 161.5,72.8333 161.5,74.5C 157.818,74.3347 154.152,74.5014 150.5,75C 149.594,76.6995 149.261,78.5328 149.5,80.5C 146.167,80.5 142.833,80.5 139.5,80.5C 139.5,79.1667 139.5,77.8333 139.5,76.5C 138.07,76.5792 136.736,76.2458 135.5,75.5C 133.605,79.1427 134.605,81.1427 138.5,81.5C 138.5,83.1667 138.5,84.8333 138.5,86.5C 133.703,86.7281 129.037,86.8948 124.5,87C 122.398,88.7328 122.065,90.7328 123.5,93C 120.719,94.9393 118.053,97.106 115.5,99.5C 114.007,103.343 112.34,107.01 110.5,110.5C 115.416,93.5802 122.916,77.9135 133,63.5C 137.518,56.989 142.684,51.1557 148.5,46C 150.582,46.9323 152.915,47.4323 155.5,47.5C 154.943,45.0509 154.943,42.7175 155.5,40.5C 159.183,38.6591 162.516,36.3258 165.5,33.5C 166.719,34.2634 167.719,35.2634 168.5,36.5C 170.398,34.5318 172.731,33.1985 175.5,32.5C 174.726,31.2888 173.893,31.2888 173,32.5C 171.049,30.8629 171.216,29.3629 173.5,28C 178.158,25.7901 182.992,23.9568 188,22.5C 190.994,24.5412 194.161,24.8745 197.5,23.5C 196.91,22.2011 195.91,21.3678 194.5,21C 203.513,18.2398 203.513,16.7398 194.5,16.5C 252.011,3.01293 294.177,22.3463 321,74.5C 324.15,78.6175 327.65,82.4508 331.5,86C 340.681,92.3632 349.681,98.8632 358.5,105.5 Z"/></g>
<g><path style="opacity:0.324" fill="#fafbfd" d="M 194.5,16.5 C 203.513,16.7398 203.513,18.2398 194.5,21C 195.91,21.3678 196.91,22.2011 197.5,23.5C 194.161,24.8745 190.994,24.5412 188,22.5C 182.992,23.9568 178.158,25.7901 173.5,28C 171.216,29.3629 171.049,30.8629 173,32.5C 173.893,31.2888 174.726,31.2888 175.5,32.5C 172.731,33.1985 170.398,34.5318 168.5,36.5C 167.719,35.2634 166.719,34.2634 165.5,33.5C 162.516,36.3258 159.183,38.6591 155.5,40.5C 154.943,42.7175 154.943,45.0509 155.5,47.5C 152.915,47.4323 150.582,46.9323 148.5,46C 142.684,51.1557 137.518,56.989 133,63.5C 122.916,77.9135 115.416,93.5802 110.5,110.5C 108.589,117.13 105.923,123.463 102.5,129.5C 100.554,131.734 99.3874,134.401 99,137.5C 97.414,138.376 95.914,139.376 94.5,140.5C 89.9189,148.082 84.2522,154.748 77.5,160.5C 78.4709,161.962 78.1376,163.295 76.5,164.5C 65.2663,175.311 59.0996,188.644 58,204.5C 56.9887,205.337 55.8221,205.67 54.5,205.5C 55.2767,190.668 60.1101,177.334 69,165.5C 78.4136,156.091 87.0802,146.091 95,135.5C 98.8606,129.112 102.194,122.446 105,115.5C 112.528,87.5969 126.361,63.4302 146.5,43C 160.555,30.6989 176.555,21.8656 194.5,16.5 Z"/></g>
<g><path style="opacity:1" fill="#f1f4fe" d="M 275.5,27.5 C 274.5,27.5 273.5,27.5 272.5,27.5C 272.833,29.5 273.167,31.5 273.5,33.5C 270.057,34.6741 266.557,35.6741 263,36.5C 262.501,40.1516 262.335,43.8183 262.5,47.5C 260.167,47.5 257.833,47.5 255.5,47.5C 255.167,43.5 254.833,43.5 254.5,47.5C 249.5,47.5 244.5,47.5 239.5,47.5C 239.286,49.1439 239.62,50.6439 240.5,52C 236.833,52.3333 233.167,52.6667 229.5,53C 228.594,54.6995 228.261,56.5328 228.5,58.5C 224.833,58.5 221.167,58.5 217.5,58.5C 217.5,60.5 217.5,62.5 217.5,64.5C 213.833,64.5 210.167,64.5 206.5,64.5C 206.5,66.1667 206.5,67.8333 206.5,69.5C 202.818,69.3347 199.152,69.5014 195.5,70C 194.594,71.6995 194.261,73.5328 194.5,75.5C 191.167,75.5 187.833,75.5 184.5,75.5C 184.739,77.4672 184.406,79.3005 183.5,81C 179.848,81.4986 176.182,81.6653 172.5,81.5C 172.5,85.1667 172.5,88.8333 172.5,92.5C 174.942,92.3537 175.609,93.187 174.5,95C 166.479,95.1684 158.479,95.6684 150.5,96.5C 157.811,97.3313 165.144,97.8313 172.5,98C 159.314,98.354 146.314,99.1874 133.5,100.5C 131.265,100.205 129.265,100.539 127.5,101.5C 127.167,101.5 126.833,101.5 126.5,101.5C 125.734,103.684 125.067,106.018 124.5,108.5C 122.955,109.452 121.288,109.785 119.5,109.5C 119.666,113.846 119.499,118.179 119,122.5C 117.556,120.845 115.722,120.178 113.5,120.5C 113.5,121.5 113.5,122.5 113.5,123.5C 109.786,123.013 106.786,124.179 104.5,127C 105.956,127.423 106.456,128.256 106,129.5C 104.855,128.316 103.688,128.316 102.5,129.5C 105.923,123.463 108.589,117.13 110.5,110.5C 112.34,107.01 114.007,103.343 115.5,99.5C 118.053,97.106 120.719,94.9393 123.5,93C 122.065,90.7328 122.398,88.7328 124.5,87C 129.037,86.8948 133.703,86.7281 138.5,86.5C 138.5,84.8333 138.5,83.1667 138.5,81.5C 134.605,81.1427 133.605,79.1427 135.5,75.5C 136.736,76.2458 138.07,76.5792 139.5,76.5C 139.5,77.8333 139.5,79.1667 139.5,80.5C 142.833,80.5 146.167,80.5 149.5,80.5C 149.261,78.5328 149.594,76.6995 150.5,75C 154.152,74.5014 157.818,74.3347 161.5,74.5C 161.5,72.8333 161.5,71.1667 161.5,69.5C 165.167,69.5 168.833,69.5 172.5,69.5C 172.5,67.8333 172.5,66.1667 172.5,64.5C 175.85,64.665 179.183,64.4983 182.5,64C 183.406,62.3005 183.739,60.4672 183.5,58.5C 190.472,58.932 197.138,57.932 203.5,55.5C 206.068,51.2156 207.068,46.5489 206.5,41.5C 209.85,41.665 213.183,41.4983 216.5,41C 217.406,39.3005 217.739,37.4672 217.5,35.5C 221.167,35.5 224.833,35.5 228.5,35.5C 228.5,33.8333 228.5,32.1667 228.5,30.5C 232.167,30.5 235.833,30.5 239.5,30.5C 238.454,25.7175 240.121,23.8842 244.5,25C 245.147,23.3905 245.98,21.8905 247,20.5C 248.796,21.767 250.629,21.767 252.5,20.5C 253.852,21.5175 254.852,22.8508 255.5,24.5C 255.94,23.302 256.273,22.1353 256.5,21C 257.667,20.8333 258.833,20.6667 260,20.5C 265.115,22.9281 270.281,25.2614 275.5,27.5 Z"/></g>
<g><path style="opacity:1" fill="#eff1fe" d="M 275.5,27.5 C 276.635,28.4745 277.635,29.6412 278.5,31C 281.785,31.7589 284.785,33.0922 287.5,35C 296.677,45.1799 305.51,55.6799 314,66.5C 315.732,69.295 316.899,72.295 317.5,75.5C 314.324,70.5006 310.658,65.8339 306.5,61.5C 307.641,60.5745 307.641,59.7412 306.5,59C 302.848,58.5014 299.182,58.3347 295.5,58.5C 295.5,60.5 295.5,62.5 295.5,64.5C 292.167,64.5 288.833,64.5 285.5,64.5C 285.5,66.1667 285.5,67.8333 285.5,69.5C 281.5,69.5 277.5,69.5 273.5,69.5C 273.5,71.5 273.5,73.5 273.5,75.5C 269.833,75.5 266.167,75.5 262.5,75.5C 262.739,77.4672 262.406,79.3005 261.5,81C 258.518,81.498 255.518,81.6646 252.5,81.5C 252.326,84.8738 251.826,88.2072 251,91.5C 247.589,92.2931 244.089,92.7931 240.5,93C 239.62,94.3561 239.286,95.8561 239.5,97.5C 231.826,97.3336 224.159,97.5003 216.5,98C 217.598,98.7697 217.598,99.603 216.5,100.5C 188.833,100.5 161.167,100.5 133.5,100.5C 146.314,99.1874 159.314,98.354 172.5,98C 165.144,97.8313 157.811,97.3313 150.5,96.5C 158.479,95.6684 166.479,95.1684 174.5,95C 175.609,93.187 174.942,92.3537 172.5,92.5C 172.5,88.8333 172.5,85.1667 172.5,81.5C 176.182,81.6653 179.848,81.4986 183.5,81C 184.406,79.3005 184.739,77.4672 184.5,75.5C 187.833,75.5 191.167,75.5 194.5,75.5C 194.261,73.5328 194.594,71.6995 195.5,70C 199.152,69.5014 202.818,69.3347 206.5,69.5C 206.5,67.8333 206.5,66.1667 206.5,64.5C 210.167,64.5 213.833,64.5 217.5,64.5C 217.5,62.5 217.5,60.5 217.5,58.5C 221.167,58.5 224.833,58.5 228.5,58.5C 228.261,56.5328 228.594,54.6995 229.5,53C 233.167,52.6667 236.833,52.3333 240.5,52C 239.62,50.6439 239.286,49.1439 239.5,47.5C 244.5,47.5 249.5,47.5 254.5,47.5C 254.833,43.5 255.167,43.5 255.5,47.5C 257.833,47.5 260.167,47.5 262.5,47.5C 262.335,43.8183 262.501,40.1516 263,36.5C 266.557,35.6741 270.057,34.6741 273.5,33.5C 273.167,31.5 272.833,29.5 272.5,27.5C 273.5,27.5 274.5,27.5 275.5,27.5 Z"/></g>
<g><path style="opacity:0.188" fill="#f9fafe" d="M 318.5,35.5 C 327.361,35.889 330.195,40.2224 327,48.5C 319.91,53.2003 315.076,51.5336 312.5,43.5C 312.685,39.3325 314.685,36.6659 318.5,35.5 Z"/></g>
<g><path style="opacity:0.133" fill="#fbfcfe" d="M 334.5,47.5 C 348.524,47.3533 353.69,54.02 350,67.5C 341.947,76.5424 333.947,76.5424 326,67.5C 322.589,58.0037 325.422,51.337 334.5,47.5 Z"/></g>
<g><path style="opacity:1" fill="#eceffe" d="M 333.5,50.5 C 339.949,49.4742 345.116,51.4742 349,56.5C 349.887,68.2693 344.387,73.1026 332.5,71C 325.629,63.6589 325.963,56.8256 333.5,50.5 Z"/></g>
<g><path style="opacity:1" fill="#eaedfe" d="M 317.5,75.5 C 322.38,80.6437 327.38,85.8103 332.5,91C 337.859,94.5992 343.192,98.0992 348.5,101.5C 345.626,100.156 342.626,98.9895 339.5,98C 338.019,97.0197 336.685,95.853 335.5,94.5C 332.827,96.1756 330.161,97.8423 327.5,99.5C 290.506,100.5 253.506,100.833 216.5,100.5C 217.598,99.603 217.598,98.7697 216.5,98C 224.159,97.5003 231.826,97.3336 239.5,97.5C 239.286,95.8561 239.62,94.3561 240.5,93C 244.089,92.7931 247.589,92.2931 251,91.5C 251.826,88.2072 252.326,84.8738 252.5,81.5C 255.518,81.6646 258.518,81.498 261.5,81C 262.406,79.3005 262.739,77.4672 262.5,75.5C 266.167,75.5 269.833,75.5 273.5,75.5C 273.5,73.5 273.5,71.5 273.5,69.5C 277.5,69.5 281.5,69.5 285.5,69.5C 285.5,67.8333 285.5,66.1667 285.5,64.5C 288.833,64.5 292.167,64.5 295.5,64.5C 295.5,62.5 295.5,60.5 295.5,58.5C 299.182,58.3347 302.848,58.5014 306.5,59C 307.641,59.7412 307.641,60.5745 306.5,61.5C 310.658,65.8339 314.324,70.5006 317.5,75.5 Z"/></g>
<g><path style="opacity:0.989" fill="#f6f8fe" d="M 82.5,98.5 C 98.1831,99.3468 104.016,107.347 100,122.5C 91.6332,132.256 82.6332,132.922 73,124.5C 67.0083,112.459 70.175,103.793 82.5,98.5 Z"/></g>
<g><path style="opacity:1" fill="#2d88d3" d="M 326.5,102.5 C 326.5,113.5 326.5,124.5 326.5,135.5C 260.5,135.5 194.5,135.5 128.5,135.5C 128.5,124.5 128.5,113.5 128.5,102.5C 194.5,102.5 260.5,102.5 326.5,102.5 Z"/></g>
<g><path style="opacity:1" fill="#f0f1fe" d="M 126.5,101.5 C 126.5,113.5 126.5,125.5 126.5,137.5C 193.167,137.5 259.833,137.5 326.5,137.5C 326.5,138.833 326.5,140.167 326.5,141.5C 326.167,141.5 325.833,141.5 325.5,141.5C 259.564,140.217 193.564,140.217 127.5,141.5C 127.5,143.833 127.5,146.167 127.5,148.5C 127.5,158.167 127.5,167.833 127.5,177.5C 125.252,174.458 124.919,171.125 126.5,167.5C 125.167,167.5 123.833,167.5 122.5,167.5C 123.152,160.338 121.152,159.505 116.5,165C 112.848,165.499 109.182,165.665 105.5,165.5C 105.5,167.167 105.5,168.833 105.5,170.5C 101.563,170.207 97.73,170.54 94,171.5C 93.5008,176.155 93.3342,180.821 93.5,185.5C 86.9384,186.877 80.2717,187.877 73.5,188.5C 72.6906,190.071 72.3573,191.738 72.5,193.5C 69.1667,193.5 65.8333,193.5 62.5,193.5C 62.8719,196.022 62.0386,198.022 60,199.5C 59.1201,204.826 58.2867,210.159 57.5,215.5C 57.8135,218.609 58.8135,221.442 60.5,224C 60.0062,225.462 59.6728,226.962 59.5,228.5C 61.5195,234.229 63.5195,239.896 65.5,245.5C 62.4909,241.794 60.8242,237.461 60.5,232.5C 59.5,232.5 58.5,232.5 57.5,232.5C 54.971,223.812 53.971,214.812 54.5,205.5C 55.8221,205.67 56.9887,205.337 58,204.5C 59.0996,188.644 65.2663,175.311 76.5,164.5C 78.1376,163.295 78.4709,161.962 77.5,160.5C 84.2522,154.748 89.9189,148.082 94.5,140.5C 95.914,139.376 97.414,138.376 99,137.5C 99.3874,134.401 100.554,131.734 102.5,129.5C 103.688,128.316 104.855,128.316 106,129.5C 106.456,128.256 105.956,127.423 104.5,127C 106.786,124.179 109.786,123.013 113.5,123.5C 113.5,122.5 113.5,121.5 113.5,120.5C 115.722,120.178 117.556,120.845 119,122.5C 119.499,118.179 119.666,113.846 119.5,109.5C 121.288,109.785 122.955,109.452 124.5,108.5C 125.067,106.018 125.734,103.684 126.5,101.5 Z"/></g>
<g><path style="opacity:0.997" fill="#f8fafd" d="M 53.5,105.5 C 66.0533,106.041 69.0533,111.541 62.5,122C 50.6311,124.963 46.2978,120.463 49.5,108.5C 50.9014,107.479 52.2347,106.479 53.5,105.5 Z"/></g>
<g><path style="opacity:1" fill="#e2e5fe" d="M 385.5,135.5 C 386.167,135.5 386.5,135.833 386.5,136.5C 384.686,145.459 383.686,154.792 383.5,164.5C 382.953,166.518 381.953,168.351 380.5,170C 374.509,170.499 368.509,170.666 362.5,170.5C 362.5,172.5 362.5,174.5 362.5,176.5C 360.833,176.5 359.167,176.5 357.5,176.5C 357.5,178.167 357.5,179.833 357.5,181.5C 355.833,181.5 354.167,181.5 352.5,181.5C 352.5,183.5 352.5,185.5 352.5,187.5C 346.824,187.334 341.157,187.501 335.5,188C 334.594,189.699 334.261,191.533 334.5,193.5C 332.61,193.703 331.11,193.037 330,191.5C 329.667,196.167 329.333,200.833 329,205.5C 328.667,204.5 328.333,203.5 328,202.5C 327.333,181.833 327.333,161.167 328,140.5C 329.78,135.997 330.613,131.33 330.5,126.5C 333.518,126.665 336.518,126.498 339.5,126C 340.167,124 340.833,122 341.5,120C 350.533,120.428 359.033,118.928 367,115.5C 372.378,120.593 377.044,126.259 381,132.5C 382.129,134.141 383.629,135.141 385.5,135.5 Z"/></g>
<g><path style="opacity:1" fill="#88a8de" d="M 127.5,101.5 C 194.002,101.168 260.335,101.501 326.5,102.5C 260.5,102.5 194.5,102.5 128.5,102.5C 128.5,113.5 128.5,124.5 128.5,135.5C 194.5,135.5 260.5,135.5 326.5,135.5C 326.5,135.833 326.5,136.167 326.5,136.5C 260.167,136.5 193.833,136.5 127.5,136.5C 127.5,124.833 127.5,113.167 127.5,101.5 Z"/></g>
<g><path style="opacity:1" fill="#cfd3f0" d="M 126.5,101.5 C 126.833,101.5 127.167,101.5 127.5,101.5C 127.5,113.167 127.5,124.833 127.5,136.5C 193.833,136.5 260.167,136.5 326.5,136.5C 326.5,136.833 326.5,137.167 326.5,137.5C 259.833,137.5 193.167,137.5 126.5,137.5C 126.5,125.5 126.5,113.5 126.5,101.5 Z"/></g>
<g><path style="opacity:1" fill="#fdfefe" d="M 325.5,141.5 C 325.5,188.167 325.5,234.833 325.5,281.5C 259.833,281.5 194.167,281.5 128.5,281.5C 128.832,236.997 128.499,192.664 127.5,148.5C 127.5,146.167 127.5,143.833 127.5,141.5C 193.564,140.217 259.564,140.217 325.5,141.5 Z"/></g>
<g><path style="opacity:1" fill="#e5e8fd" d="M 348.5,101.5 C 350.932,102.75 353.266,104.25 355.5,106C 356.749,106.74 357.749,106.573 358.5,105.5C 371.038,112.368 380.038,122.368 385.5,135.5C 383.629,135.141 382.129,134.141 381,132.5C 377.044,126.259 372.378,120.593 367,115.5C 359.033,118.928 350.533,120.428 341.5,120C 340.833,122 340.167,124 339.5,126C 336.518,126.498 333.518,126.665 330.5,126.5C 330.613,131.33 329.78,135.997 328,140.5C 327.333,161.167 327.333,181.833 328,202.5C 328.333,203.5 328.667,204.5 329,205.5C 329.333,200.833 329.667,196.167 330,191.5C 331.11,193.037 332.61,193.703 334.5,193.5C 334.261,191.533 334.594,189.699 335.5,188C 341.157,187.501 346.824,187.334 352.5,187.5C 352.5,185.5 352.5,183.5 352.5,181.5C 354.167,181.5 355.833,181.5 357.5,181.5C 357.5,179.833 357.5,178.167 357.5,176.5C 359.167,176.5 360.833,176.5 362.5,176.5C 362.5,174.5 362.5,172.5 362.5,170.5C 368.509,170.666 374.509,170.499 380.5,170C 381.953,168.351 382.953,166.518 383.5,164.5C 383.852,170.947 382.018,176.614 378,181.5C 377.506,183.134 377.34,184.801 377.5,186.5C 375.01,190.147 373.01,194.147 371.5,198.5C 368.916,199.393 366.249,199.726 363.5,199.5C 363.714,201.144 363.38,202.644 362.5,204C 359.183,204.498 355.85,204.665 352.5,204.5C 352.739,206.467 352.406,208.301 351.5,210C 348.183,210.498 344.85,210.665 341.5,210.5C 341.739,212.467 341.406,214.301 340.5,216C 335.909,216.942 331.576,216.442 327.5,214.5C 327.813,210.958 327.479,207.625 326.5,204.5C 326.5,183.5 326.5,162.5 326.5,141.5C 326.5,140.167 326.5,138.833 326.5,137.5C 326.5,137.167 326.5,136.833 326.5,136.5C 326.5,136.167 326.5,135.833 326.5,135.5C 326.5,124.5 326.5,113.5 326.5,102.5C 260.335,101.501 194.002,101.168 127.5,101.5C 129.265,100.539 131.265,100.205 133.5,100.5C 161.167,100.5 188.833,100.5 216.5,100.5C 253.506,100.833 290.506,100.5 327.5,99.5C 330.161,97.8423 332.827,96.1756 335.5,94.5C 336.685,95.853 338.019,97.0197 339.5,98C 342.626,98.9895 345.626,100.156 348.5,101.5 Z"/></g>
<g><path style="opacity:1" fill="#e9ecfe" d="M 127.5,177.5 C 127.5,203.5 127.5,229.5 127.5,255.5C 126.51,249.69 126.177,243.69 126.5,237.5C 125.154,233.964 124.154,230.298 123.5,226.5C 121.5,226.5 119.5,226.5 117.5,226.5C 117.739,224.533 117.406,222.699 116.5,221C 112.848,220.501 109.182,220.335 105.5,220.5C 105.66,222.199 105.494,223.866 105,225.5C 101.589,226.293 98.0894,226.793 94.5,227C 93.5939,228.699 93.2606,230.533 93.5,232.5C 90.1667,232.5 86.8333,232.5 83.5,232.5C 83.7852,234.288 83.4519,235.955 82.5,237.5C 77.7957,237.788 73.4624,239.122 69.5,241.5C 69.1478,244.991 69.1478,248.324 69.5,251.5C 67.6563,249.805 66.3229,247.805 65.5,245.5C 63.5195,239.896 61.5195,234.229 59.5,228.5C 59.6728,226.962 60.0062,225.462 60.5,224C 58.8135,221.442 57.8135,218.609 57.5,215.5C 58.2867,210.159 59.1201,204.826 60,199.5C 62.0386,198.022 62.8719,196.022 62.5,193.5C 65.8333,193.5 69.1667,193.5 72.5,193.5C 72.3573,191.738 72.6906,190.071 73.5,188.5C 80.2717,187.877 86.9384,186.877 93.5,185.5C 93.3342,180.821 93.5008,176.155 94,171.5C 97.73,170.54 101.563,170.207 105.5,170.5C 105.5,168.833 105.5,167.167 105.5,165.5C 109.182,165.665 112.848,165.499 116.5,165C 121.152,159.505 123.152,160.338 122.5,167.5C 123.833,167.5 125.167,167.5 126.5,167.5C 124.919,171.125 125.252,174.458 127.5,177.5 Z"/></g>
<g><path style="opacity:0.184" fill="#fbfcfe" d="M 377.5,207.5 C 381.335,198.922 387.668,196.422 396.5,200C 398.049,201.214 399.215,202.714 400,204.5C 403.027,218.806 397.527,224.306 383.5,221C 379.178,217.523 377.178,213.023 377.5,207.5 Z"/></g>
<g><path style="opacity:0.998" fill="#ebeefd" d="M 388.5,201.5 C 398.059,204.233 400.059,209.733 394.5,218C 384.101,220.421 379.768,216.588 381.5,206.5C 383.881,204.768 386.214,203.101 388.5,201.5 Z"/></g>
<g><path style="opacity:1" fill="#eaedfe" d="M 377.5,186.5 C 375.742,194.935 373.742,203.268 371.5,211.5C 373.481,216.113 373.481,220.613 371.5,225C 371.585,226.107 371.919,227.107 372.5,228C 371.426,228.739 370.759,229.739 370.5,231C 370.86,232.652 371.193,234.318 371.5,236C 369.85,239.94 369.017,244.107 369,248.5C 363.593,249.473 358.093,249.807 352.5,249.5C 352.714,251.144 352.38,252.644 351.5,254C 345.158,254.475 338.824,254.975 332.5,255.5C 332.5,257.167 332.5,258.833 332.5,260.5C 330.856,260.286 329.356,260.62 328,261.5C 327.5,245.837 327.333,230.17 327.5,214.5C 331.576,216.442 335.909,216.942 340.5,216C 341.406,214.301 341.739,212.467 341.5,210.5C 344.85,210.665 348.183,210.498 351.5,210C 352.406,208.301 352.739,206.467 352.5,204.5C 355.85,204.665 359.183,204.498 362.5,204C 363.38,202.644 363.714,201.144 363.5,199.5C 366.249,199.726 368.916,199.393 371.5,198.5C 373.01,194.147 375.01,190.147 377.5,186.5 Z"/></g>
<g><path style="opacity:0.997" fill="#eff1fe" d="M 386.5,136.5 C 388.34,145.834 388.507,155.167 387,164.5C 384.646,174.582 381.979,184.582 379,194.5C 377.925,198.77 377.425,203.103 377.5,207.5C 376.012,222.984 375.012,238.651 374.5,254.5C 373.542,254.047 372.708,253.381 372,252.5C 371.667,252.833 371.333,253.167 371,253.5C 369.251,262.915 367.251,272.248 365,281.5C 363.518,284.273 361.852,286.94 360,289.5C 352.274,298.287 342.774,304.454 331.5,308C 330.643,308.689 329.977,309.522 329.5,310.5C 314.419,316.07 299.086,317.07 283.5,313.5C 274.395,313.537 264.729,314.037 254.5,315C 248.156,317.174 241.822,319.341 235.5,321.5C 237.795,318.543 239.128,315.209 239.5,311.5C 246.841,311.666 254.174,311.5 261.5,311C 263.172,307.857 262.506,305.357 259.5,303.5C 260.325,302.614 261.325,302.281 262.5,302.5C 262.5,301.5 262.5,300.5 262.5,299.5C 266.167,299.5 269.833,299.5 273.5,299.5C 273.5,297.833 273.5,296.167 273.5,294.5C 277.182,294.665 280.848,294.499 284.5,294C 285.313,292.686 286.313,291.519 287.5,290.5C 286.975,289.808 286.308,289.308 285.5,289C 286.308,288.692 286.975,288.192 287.5,287.5C 286.147,286.476 285.48,285.143 285.5,283.5C 271.323,283.829 257.323,283.496 243.5,282.5C 271.167,282.5 298.833,282.5 326.5,282.5C 326.5,256.5 326.5,230.5 326.5,204.5C 327.479,207.625 327.813,210.958 327.5,214.5C 327.333,230.17 327.5,245.837 328,261.5C 329.356,260.62 330.856,260.286 332.5,260.5C 332.5,258.833 332.5,257.167 332.5,255.5C 338.824,254.975 345.158,254.475 351.5,254C 352.38,252.644 352.714,251.144 352.5,249.5C 358.093,249.807 363.593,249.473 369,248.5C 369.017,244.107 369.85,239.94 371.5,236C 371.193,234.318 370.86,232.652 370.5,231C 370.759,229.739 371.426,228.739 372.5,228C 371.919,227.107 371.585,226.107 371.5,225C 373.481,220.613 373.481,216.113 371.5,211.5C 373.742,203.268 375.742,194.935 377.5,186.5C 377.34,184.801 377.506,183.134 378,181.5C 382.018,176.614 383.852,170.947 383.5,164.5C 383.686,154.792 384.686,145.459 386.5,136.5 Z"/></g>
<g><path style="opacity:1" fill="#e5e9fe" d="M 126.5,237.5 C 124.577,241.029 123.911,245.029 124.5,249.5C 122.167,249.5 119.833,249.5 117.5,249.5C 117.5,251.167 117.5,252.833 117.5,254.5C 113.5,254.5 109.5,254.5 105.5,254.5C 105.5,256.5 105.5,258.5 105.5,260.5C 101.833,260.5 98.1667,260.5 94.5,260.5C 93.9084,263.127 93.5751,265.794 93.5,268.5C 92.0695,268.579 90.7362,268.246 89.5,267.5C 88.0815,268.005 87.4148,269.005 87.5,270.5C 80.0633,265.4 74.0633,259.067 69.5,251.5C 69.1478,248.324 69.1478,244.991 69.5,241.5C 73.4624,239.122 77.7957,237.788 82.5,237.5C 83.4519,235.955 83.7852,234.288 83.5,232.5C 86.8333,232.5 90.1667,232.5 93.5,232.5C 93.2606,230.533 93.5939,228.699 94.5,227C 98.0894,226.793 101.589,226.293 105,225.5C 105.494,223.866 105.66,222.199 105.5,220.5C 109.182,220.335 112.848,220.501 116.5,221C 117.406,222.699 117.739,224.533 117.5,226.5C 119.5,226.5 121.5,226.5 123.5,226.5C 124.154,230.298 125.154,233.964 126.5,237.5 Z"/></g>
<g><path style="opacity:1" fill="#e3e5fe" d="M 126.5,237.5 C 126.177,243.69 126.51,249.69 127.5,255.5C 127.5,264.5 127.5,273.5 127.5,282.5C 143.325,283.496 159.325,283.83 175.5,283.5C 175.179,285.048 174.179,285.715 172.5,285.5C 172.719,286.675 172.386,287.675 171.5,288.5C 168.242,287.583 164.909,287.249 161.5,287.5C 161.5,289.833 161.5,292.167 161.5,294.5C 157.833,294.5 154.167,294.5 150.5,294.5C 150.5,297.167 150.5,299.833 150.5,302.5C 146.833,302.5 143.167,302.5 139.5,302.5C 140.084,305.983 139.251,308.983 137,311.5C 131.892,311.731 126.726,311.398 121.5,310.5C 116.961,299.093 110.628,288.759 102.5,279.5C 99.8333,278.5 97.1667,277.5 94.5,276.5C 92.6932,273.781 90.3598,271.781 87.5,270.5C 87.4148,269.005 88.0815,268.005 89.5,267.5C 90.7362,268.246 92.0695,268.579 93.5,268.5C 93.5751,265.794 93.9084,263.127 94.5,260.5C 98.1667,260.5 101.833,260.5 105.5,260.5C 105.5,258.5 105.5,256.5 105.5,254.5C 109.5,254.5 113.5,254.5 117.5,254.5C 117.5,252.833 117.5,251.167 117.5,249.5C 119.833,249.5 122.167,249.5 124.5,249.5C 123.911,245.029 124.577,241.029 126.5,237.5 Z"/></g>
<g><path style="opacity:0.258" fill="#f9fafe" d="M 57.5,232.5 C 58.5,232.5 59.5,232.5 60.5,232.5C 60.8242,237.461 62.4909,241.794 65.5,245.5C 66.3229,247.805 67.6563,249.805 69.5,251.5C 74.0633,259.067 80.0633,265.4 87.5,270.5C 90.3598,271.781 92.6932,273.781 94.5,276.5C 97.1667,277.5 99.8333,278.5 102.5,279.5C 110.628,288.759 116.961,299.093 121.5,310.5C 122.654,313.479 123.82,316.479 125,319.5C 127.054,322.047 128.887,324.714 130.5,327.5C 133.367,329.77 136.033,332.27 138.5,335C 148.261,340.476 158.761,343.976 170,345.5C 178.179,344.093 186.345,342.593 194.5,341C 199.248,339.227 203.748,337.061 208,334.5C 209.049,335.517 210.216,335.684 211.5,335C 218.299,331.189 225.299,327.856 232.5,325C 233.163,323.482 234.163,322.315 235.5,321.5C 241.822,319.341 248.156,317.174 254.5,315C 264.729,314.037 274.395,313.537 283.5,313.5C 299.086,317.07 314.419,316.07 329.5,310.5C 329.977,309.522 330.643,308.689 331.5,308C 342.774,304.454 352.274,298.287 360,289.5C 361.852,286.94 363.518,284.273 365,281.5C 367.251,272.248 369.251,262.915 371,253.5C 371.333,253.167 371.667,252.833 372,252.5C 372.708,253.381 373.542,254.047 374.5,254.5C 371.444,289.728 352.444,310.561 317.5,317C 313.5,317.667 309.5,318.333 305.5,319C 289.17,318.584 272.837,318.251 256.5,318C 251.106,319.465 245.772,321.131 240.5,323C 228.306,330.286 215.64,336.62 202.5,342C 184.685,349.441 166.685,350.108 148.5,344C 140.557,340.721 133.723,335.888 128,329.5C 121.269,316.372 114.269,303.372 107,290.5C 100.607,282.548 92.7739,276.381 83.5,272C 72.9867,263.83 65.1534,253.663 60,241.5C 58.8551,238.568 58.0218,235.568 57.5,232.5 Z"/></g>
<g><path style="opacity:1" fill="#f6f7fd" d="M 325.5,141.5 C 325.833,141.5 326.167,141.5 326.5,141.5C 326.5,162.5 326.5,183.5 326.5,204.5C 326.5,230.5 326.5,256.5 326.5,282.5C 298.833,282.5 271.167,282.5 243.5,282.5C 204.833,282.5 166.167,282.5 127.5,282.5C 127.5,273.5 127.5,264.5 127.5,255.5C 127.5,229.5 127.5,203.5 127.5,177.5C 127.5,167.833 127.5,158.167 127.5,148.5C 128.499,192.664 128.832,236.997 128.5,281.5C 194.167,281.5 259.833,281.5 325.5,281.5C 325.5,234.833 325.5,188.167 325.5,141.5 Z"/></g>
<g><path style="opacity:1" fill="#ced5ed" d="M 192.5,234.5 C 202.5,234.5 212.5,234.5 222.5,234.5C 222.5,243.833 222.5,253.167 222.5,262.5C 212.5,262.5 202.5,262.5 192.5,262.5C 192.5,253.167 192.5,243.833 192.5,234.5 Z"/></g>
<g><path style="opacity:1" fill="#ced5ed" d="M 152.5,234.5 C 162.22,234.192 171.887,234.526 181.5,235.5C 182.498,244.475 182.832,253.475 182.5,262.5C 172.5,262.5 162.5,262.5 152.5,262.5C 152.5,253.167 152.5,243.833 152.5,234.5 Z"/></g>
<g><path style="opacity:1" fill="#e0e4f0" d="M 231.5,234.5 C 241.833,234.5 252.167,234.5 262.5,234.5C 262.5,243.833 262.5,253.167 262.5,262.5C 252.167,262.5 241.833,262.5 231.5,262.5C 231.5,253.167 231.5,243.833 231.5,234.5 Z"/></g>
<g><path style="opacity:1" fill="#cdd4ed" d="M 232.5,235.5 C 242.167,235.5 251.833,235.5 261.5,235.5C 261.5,244.167 261.5,252.833 261.5,261.5C 251.833,261.5 242.167,261.5 232.5,261.5C 232.5,252.833 232.5,244.167 232.5,235.5 Z"/></g>
<g><path style="opacity:1" fill="#e8ebf6" d="M 261.5,198.5 C 262.494,207.652 262.827,216.985 262.5,226.5C 252.167,226.5 241.833,226.5 231.5,226.5C 231.5,216.833 231.5,207.167 231.5,197.5C 241.681,197.173 251.681,197.506 261.5,198.5 Z"/></g>
<g><path style="opacity:1" fill="#e0e3f1" d="M 192.5,197.5 C 202.5,197.5 212.5,197.5 222.5,197.5C 222.5,206.833 222.5,216.167 222.5,225.5C 212.167,225.5 201.833,225.5 191.5,225.5C 191.195,216.083 191.528,206.75 192.5,197.5 Z"/></g>
<g><path style="opacity:1" fill="#dfe3f1" d="M 152.5,197.5 C 162.833,197.5 173.167,197.5 183.5,197.5C 183.5,206.833 183.5,216.167 183.5,225.5C 173.167,225.5 162.833,225.5 152.5,225.5C 152.5,216.167 152.5,206.833 152.5,197.5 Z"/></g>
<g><path style="opacity:1" fill="#ced5ed" d="M 271.5,197.5 C 281.5,197.5 291.5,197.5 301.5,197.5C 301.5,206.833 301.5,216.167 301.5,225.5C 291.5,225.5 281.5,225.5 271.5,225.5C 271.5,216.167 271.5,206.833 271.5,197.5 Z"/></g>
<g><path style="opacity:1" fill="#cdd4ec" d="M 261.5,198.5 C 261.5,207.167 261.5,215.833 261.5,224.5C 251.833,224.5 242.167,224.5 232.5,224.5C 232.5,215.833 232.5,207.167 232.5,198.5C 242.167,198.5 251.833,198.5 261.5,198.5 Z"/></g>
<g><path style="opacity:1" fill="#cdd4ec" d="M 193.5,198.5 C 202.833,198.5 212.167,198.5 221.5,198.5C 221.5,207.167 221.5,215.833 221.5,224.5C 211.833,224.5 202.167,224.5 192.5,224.5C 192.197,215.749 192.53,207.082 193.5,198.5 Z"/></g>
<g><path style="opacity:1" fill="#ccd4ed" d="M 153.5,198.5 C 163.167,198.5 172.833,198.5 182.5,198.5C 182.5,207.167 182.5,215.833 182.5,224.5C 172.833,224.5 163.167,224.5 153.5,224.5C 153.5,215.833 153.5,207.167 153.5,198.5 Z"/></g>
<g><path style="opacity:1" fill="#dbdfee" d="M 271.5,160.5 C 281.5,160.5 291.5,160.5 301.5,160.5C 301.5,169.833 301.5,179.167 301.5,188.5C 291.5,188.5 281.5,188.5 271.5,188.5C 271.5,179.167 271.5,169.833 271.5,160.5 Z"/></g>
<g><path style="opacity:1" fill="#cdd4ed" d="M 231.5,160.5 C 241.5,160.5 251.5,160.5 261.5,160.5C 261.5,169.5 261.5,178.5 261.5,187.5C 251.5,187.5 241.5,187.5 231.5,187.5C 231.5,178.5 231.5,169.5 231.5,160.5 Z"/></g>
<g><path style="opacity:1" fill="#cfd5ed" d="M 192.5,160.5 C 202.5,160.5 212.5,160.5 222.5,160.5C 222.5,169.833 222.5,179.167 222.5,188.5C 212.5,188.5 202.5,188.5 192.5,188.5C 192.5,179.167 192.5,169.833 192.5,160.5 Z"/></g>
<g><path style="opacity:1" fill="#cdd4ec" d="M 273.5,161.5 C 282.5,161.5 291.5,161.5 300.5,161.5C 300.5,170.167 300.5,178.833 300.5,187.5C 291.167,187.5 281.833,187.5 272.5,187.5C 271.913,179.627 272.58,171.96 274.5,164.5C 273.873,163.583 273.539,162.583 273.5,161.5 Z"/></g>
<g><path style="opacity:1" fill="#e5e9fe" d="M 175.5,283.5 C 183.105,283.09 190.605,283.757 198,285.5C 199.716,285.252 201.216,284.585 202.5,283.5C 207.781,284.991 213.114,286.158 218.5,287C 214.703,288.424 210.703,288.924 206.5,288.5C 206.5,290.5 206.5,292.5 206.5,294.5C 202.833,294.5 199.167,294.5 195.5,294.5C 194.537,298.101 193.87,301.767 193.5,305.5C 190.5,305.5 187.5,305.5 184.5,305.5C 184.739,307.467 184.406,309.301 183.5,311C 179.848,311.499 176.182,311.665 172.5,311.5C 172.739,313.467 172.406,315.301 171.5,317C 168.518,317.498 165.518,317.665 162.5,317.5C 162.714,319.144 162.38,320.644 161.5,322C 157.848,322.499 154.182,322.665 150.5,322.5C 150.5,325.167 150.5,327.833 150.5,330.5C 146.818,330.665 143.152,330.499 139.5,330C 136.662,328.745 133.662,327.911 130.5,327.5C 128.887,324.714 127.054,322.047 125,319.5C 123.82,316.479 122.654,313.479 121.5,310.5C 126.726,311.398 131.892,311.731 137,311.5C 139.251,308.983 140.084,305.983 139.5,302.5C 143.167,302.5 146.833,302.5 150.5,302.5C 150.5,299.833 150.5,297.167 150.5,294.5C 154.167,294.5 157.833,294.5 161.5,294.5C 161.5,292.167 161.5,289.833 161.5,287.5C 164.909,287.249 168.242,287.583 171.5,288.5C 172.386,287.675 172.719,286.675 172.5,285.5C 174.179,285.715 175.179,285.048 175.5,283.5 Z"/></g>
<g><path style="opacity:1" fill="#eaedfe" d="M 127.5,282.5 C 166.167,282.5 204.833,282.5 243.5,282.5C 257.323,283.496 271.323,283.829 285.5,283.5C 285.48,285.143 286.147,286.476 287.5,287.5C 286.975,288.192 286.308,288.692 285.5,289C 286.308,289.308 286.975,289.808 287.5,290.5C 286.313,291.519 285.313,292.686 284.5,294C 280.848,294.499 277.182,294.665 273.5,294.5C 273.5,296.167 273.5,297.833 273.5,299.5C 269.833,299.5 266.167,299.5 262.5,299.5C 262.5,300.5 262.5,301.5 262.5,302.5C 261.325,302.281 260.325,302.614 259.5,303.5C 262.506,305.357 263.172,307.857 261.5,311C 254.174,311.5 246.841,311.666 239.5,311.5C 239.128,315.209 237.795,318.543 235.5,321.5C 234.163,322.315 233.163,323.482 232.5,325C 225.299,327.856 218.299,331.189 211.5,335C 210.216,335.684 209.049,335.517 208,334.5C 203.748,337.061 199.248,339.227 194.5,341C 186.345,342.593 178.179,344.093 170,345.5C 158.761,343.976 148.261,340.476 138.5,335C 136.033,332.27 133.367,329.77 130.5,327.5C 133.662,327.911 136.662,328.745 139.5,330C 143.152,330.499 146.818,330.665 150.5,330.5C 150.5,327.833 150.5,325.167 150.5,322.5C 154.182,322.665 157.848,322.499 161.5,322C 162.38,320.644 162.714,319.144 162.5,317.5C 165.518,317.665 168.518,317.498 171.5,317C 172.406,315.301 172.739,313.467 172.5,311.5C 176.182,311.665 179.848,311.499 183.5,311C 184.406,309.301 184.739,307.467 184.5,305.5C 187.5,305.5 190.5,305.5 193.5,305.5C 193.87,301.767 194.537,298.101 195.5,294.5C 199.167,294.5 202.833,294.5 206.5,294.5C 206.5,292.5 206.5,290.5 206.5,288.5C 210.703,288.924 214.703,288.424 218.5,287C 213.114,286.158 207.781,284.991 202.5,283.5C 201.216,284.585 199.716,285.252 198,285.5C 190.605,283.757 183.105,283.09 175.5,283.5C 159.325,283.83 143.325,283.496 127.5,282.5 Z"/></g>
<g><path style="opacity:0.069" fill="#f6f7fd" d="M 92.5,294.5 C 107.871,294.363 113.705,301.697 110,316.5C 104.151,324.75 96.6513,326.583 87.5,322C 79.2222,314.618 78.5556,306.618 85.5,298C 87.9252,296.787 90.2585,295.621 92.5,294.5 Z"/></g>
<g><path style="opacity:0.999" fill="#e3e5fd" d="M 91.5,297.5 C 99.8636,296.507 105.53,299.84 108.5,307.5C 109.219,315.447 105.719,319.78 98,320.5C 96.6309,318.304 94.7976,317.97 92.5,319.5C 90.5406,319.125 88.7073,318.459 87,317.5C 82.1497,309.556 83.6497,302.89 91.5,297.5 Z"/></g>
<g><path style="opacity:1" fill="#f1f2fb" d="M 105.5,326.5 C 113.825,324.993 117.325,328.327 116,336.5C 111.667,341.833 107.333,341.833 103,336.5C 101.861,332.579 102.695,329.246 105.5,326.5 Z"/></g>
<g><path style="opacity:0.999" fill="#f3f6fd" d="M 254.5,327.5 C 274.449,325.28 282.949,333.947 280,353.5C 273.846,365.404 264.346,368.904 251.5,364C 240.794,356.146 238.628,346.313 245,334.5C 247.79,331.535 250.957,329.202 254.5,327.5 Z"/></g>
<g><path style="opacity:0.873" fill="#2c88d3" d="M 79.5,396.5 C 81.5,396.5 83.5,396.5 85.5,396.5C 85.1744,400.884 85.5078,405.217 86.5,409.5C 90.6364,407.553 94.9697,407.053 99.5,408C 101.333,408.5 102.5,409.667 103,411.5C 104.406,419.749 104.906,428.083 104.5,436.5C 102.5,436.5 100.5,436.5 98.5,436.5C 98.6663,429.159 98.4997,421.826 98,414.5C 93.8068,411.715 89.8068,412.048 86,415.5C 85.5004,422.492 85.3337,429.492 85.5,436.5C 83.5,436.5 81.5,436.5 79.5,436.5C 79.5,423.167 79.5,409.833 79.5,396.5 Z"/></g>
<g><path style="opacity:0.925" fill="#2b88d3" d="M 161.5,396.5 C 163.5,396.5 165.5,396.5 167.5,396.5C 167.5,409.833 167.5,423.167 167.5,436.5C 165.208,436.756 163.041,436.423 161,435.5C 150.746,440.528 144.413,437.528 142,426.5C 140.43,411.729 146.763,405.729 161,408.5C 161.499,404.514 161.666,400.514 161.5,396.5 Z M 152.5,412.5 C 155.448,412.223 158.281,412.556 161,413.5C 161.667,419.167 161.667,424.833 161,430.5C 150.467,434.65 146.134,430.984 148,419.5C 148.53,416.415 150.03,414.082 152.5,412.5 Z"/></g>
<g><path style="opacity:0.795" fill="#2c87d3" d="M 208.5,396.5 C 210.5,396.5 212.5,396.5 214.5,396.5C 214.5,409.833 214.5,423.167 214.5,436.5C 212.5,436.5 210.5,436.5 208.5,436.5C 208.5,423.167 208.5,409.833 208.5,396.5 Z"/></g>
<g><path style="opacity:0.888" fill="#2c89d3" d="M 23.5,397.5 C 30.6328,397.108 37.6328,397.775 44.5,399.5C 44.5,401.833 44.5,404.167 44.5,406.5C 40.1845,404.175 35.5179,402.842 30.5,402.5C 25.9273,402.064 22.9273,404.064 21.5,408.5C 22.0318,410.741 23.3651,412.241 25.5,413C 32.3318,413.426 38.4984,415.593 44,419.5C 47.3765,427.909 44.8765,433.743 36.5,437C 30.0983,437.818 23.765,437.484 17.5,436C 15.3628,433.821 15.0295,431.321 16.5,428.5C 22.3661,432.14 28.6994,433.307 35.5,432C 40.2651,428.982 40.5984,425.649 36.5,422C 31.1178,420.88 25.7844,419.547 20.5,418C 13.2088,409.916 14.2088,403.083 23.5,397.5 Z"/></g>
<g><path style="opacity:0.93" fill="#2c88d3" d="M 272.5,398.5 C 275.247,398.187 277.914,398.52 280.5,399.5C 283.507,405.535 286.507,411.535 289.5,417.5C 292.59,411.652 295.423,405.652 298,399.5C 300.719,398.556 303.552,398.223 306.5,398.5C 306.5,411.167 306.5,423.833 306.5,436.5C 304.5,436.5 302.5,436.5 300.5,436.5C 300.666,426.828 300.5,417.161 300,407.5C 297.333,413.5 294.667,419.5 292,425.5C 290.186,426.76 288.353,426.76 286.5,425.5C 283.667,419.167 280.833,412.833 278,406.5C 277.5,416.494 277.334,426.494 277.5,436.5C 275.833,436.5 274.167,436.5 272.5,436.5C 272.5,423.833 272.5,411.167 272.5,398.5 Z"/></g>
<g><path style="opacity:0.852" fill="#2c88d3" d="M 373.5,400.5 C 375.5,400.5 377.5,400.5 379.5,400.5C 379.5,403.167 379.5,405.833 379.5,408.5C 382.833,408.5 386.167,408.5 389.5,408.5C 389.5,409.833 389.5,411.167 389.5,412.5C 386.167,412.5 382.833,412.5 379.5,412.5C 379.334,418.509 379.501,424.509 380,430.5C 382.826,432.34 385.993,433.006 389.5,432.5C 389.5,434.167 389.5,435.833 389.5,437.5C 385.818,437.665 382.152,437.499 378.5,437C 377.069,436.535 375.903,435.701 375,434.5C 373.652,427.239 373.152,419.906 373.5,412.5C 372.5,412.5 371.5,412.5 370.5,412.5C 370.5,411.167 370.5,409.833 370.5,408.5C 371.5,408.5 372.5,408.5 373.5,408.5C 373.5,405.833 373.5,403.167 373.5,400.5 Z"/></g>
<g><path style="opacity:0.88" fill="#2c88d3" d="M 59.5,407.5 C 63.5138,407.334 67.5138,407.501 71.5,408C 74.5477,409.73 75.2143,412.23 73.5,415.5C 64.1433,409.657 58.4766,411.99 56.5,422.5C 56.871,431.023 61.2043,434.19 69.5,432C 70.6651,430.916 71.9984,430.083 73.5,429.5C 74.7691,431.695 74.7691,433.861 73.5,436C 57.466,440.957 49.966,435.123 51,418.5C 51.9453,413.233 54.7787,409.566 59.5,407.5 Z"/></g>
<g><path style="opacity:0.899" fill="#2c88d2" d="M 119.5,407.5 C 132.102,405.437 138.102,410.77 137.5,423.5C 130.5,423.5 123.5,423.5 116.5,423.5C 117.735,431.629 122.402,434.462 130.5,432C 135.49,427.905 137.324,429.072 136,435.5C 130.687,437.474 125.187,437.974 119.5,437C 111.974,433.145 109.14,426.979 111,418.5C 111.945,413.233 114.779,409.566 119.5,407.5 Z M 120.5,412.5 C 127.086,410.715 130.753,413.049 131.5,419.5C 126.456,419.827 121.456,419.494 116.5,418.5C 117.467,416.21 118.8,414.21 120.5,412.5 Z"/></g>
<g><path style="opacity:0.899" fill="#2c88d2" d="M 229.5,407.5 C 242.102,405.437 248.102,410.77 247.5,423.5C 240.5,423.5 233.5,423.5 226.5,423.5C 227.735,431.629 232.402,434.462 240.5,432C 245.49,427.905 247.324,429.072 246,435.5C 240.687,437.474 235.187,437.974 229.5,437C 221.974,433.145 219.14,426.979 221,418.5C 221.945,413.233 224.779,409.566 229.5,407.5 Z M 230.5,412.5 C 237.086,410.715 240.753,413.049 241.5,419.5C 236.456,419.827 231.456,419.494 226.5,418.5C 227.467,416.21 228.8,414.21 230.5,412.5 Z"/></g>
<g><path style="opacity:0.914" fill="#2d88d2" d="M 317.5,407.5 C 322.844,407.334 328.177,407.501 333.5,408C 334.931,408.465 336.097,409.299 337,410.5C 338.441,419.058 338.941,427.724 338.5,436.5C 336.208,436.756 334.041,436.423 332,435.5C 327.729,437.496 323.229,437.996 318.5,437C 312.302,431.631 311.968,425.964 317.5,420C 322.284,417.968 327.284,417.134 332.5,417.5C 332.773,415.549 332.107,414.049 330.5,413C 325.806,412.436 321.14,412.603 316.5,413.5C 316.325,411.379 316.659,409.379 317.5,407.5 Z M 324.5,422.5 C 327.167,422.5 329.833,422.5 332.5,422.5C 333.362,430.801 329.695,433.968 321.5,432C 319.327,430.135 318.993,427.969 320.5,425.5C 321.901,424.479 323.235,423.479 324.5,422.5 Z"/></g>
<g><path style="opacity:0.896" fill="#2c89d3" d="M 350.5,407.5 C 355.88,407.324 361.213,407.658 366.5,408.5C 366.5,410.5 366.5,412.5 366.5,414.5C 361.997,412.722 357.331,412.222 352.5,413C 349.833,414.667 349.833,416.333 352.5,418C 357.44,419.23 362.107,421.064 366.5,423.5C 369.019,429.726 367.353,434.226 361.5,437C 355.813,437.974 350.313,437.474 345,435.5C 344.505,433.527 344.338,431.527 344.5,429.5C 348.208,430.934 352.041,431.934 356,432.5C 359.201,433.092 361.368,431.925 362.5,429C 359.111,426.137 355.111,424.471 350.5,424C 342.935,418.585 342.935,413.085 350.5,407.5 Z"/></g>
<g><path style="opacity:0.899" fill="#2c88d2" d="M 400.5,407.5 C 413.102,405.437 419.102,410.77 418.5,423.5C 411.5,423.5 404.5,423.5 397.5,423.5C 398.735,431.629 403.402,434.462 411.5,432C 416.49,427.905 418.324,429.072 417,435.5C 411.687,437.474 406.187,437.974 400.5,437C 392.974,433.145 390.14,426.979 392,418.5C 392.945,413.233 395.779,409.566 400.5,407.5 Z M 401.5,412.5 C 408.086,410.715 411.753,413.049 412.5,419.5C 407.456,419.827 402.456,419.494 397.5,418.5C 398.467,416.21 399.8,414.21 401.5,412.5 Z"/></g>
<g><path style="opacity:0.824" fill="#2c88d3" d="M 175.5,408.5 C 177.5,408.5 179.5,408.5 181.5,408.5C 181.334,415.841 181.5,423.174 182,430.5C 186.193,433.285 190.193,432.952 194,429.5C 194.5,422.508 194.666,415.508 194.5,408.5C 196.5,408.5 198.5,408.5 200.5,408.5C 200.5,417.833 200.5,427.167 200.5,436.5C 198.08,436.708 195.747,436.374 193.5,435.5C 188.301,438.139 183.134,438.139 178,435.5C 177.333,434.167 176.667,432.833 176,431.5C 175.5,423.841 175.334,416.174 175.5,408.5 Z"/></g>
<g><path style="opacity:0.909" fill="#2b88d3" d="M 424.5,408.5 C 426.5,408.5 428.5,408.5 430.5,408.5C 430.351,409.552 430.517,410.552 431,411.5C 431.903,410.299 433.069,409.465 434.5,409C 437.482,408.502 440.482,408.335 443.5,408.5C 443.5,410.167 443.5,411.833 443.5,413.5C 439.264,413.559 435.264,414.559 431.5,416.5C 430.503,423.134 430.17,429.8 430.5,436.5C 428.5,436.5 426.5,436.5 424.5,436.5C 424.5,427.167 424.5,417.833 424.5,408.5 Z"/></g>
</svg>
