<svg xmlns="http://www.w3.org/2000/svg" version="1.1" xmlns:xlink="http://www.w3.org/1999/xlink" xmlns:svgjs="http://svgjs.dev/svgjs" width="1920" height="1080" preserveAspectRatio="none" viewBox="0 0 1920 1080"><g mask="url(&quot;#SvgjsMask1346&quot;)" fill="none"><rect width="1920" height="1080" x="0" y="0" fill="rgba(21, 67, 96, 1)"></rect><path d="M0,490.469C116.778,500.645,242.849,594.691,342.007,532.173C440.986,469.768,423.564,319.743,451.142,206.029C473.487,113.891,495.353,24.353,488.09,-70.177C480.413,-170.09,462.242,-269.307,408.137,-353.653C348.666,-446.363,271.814,-535.047,167.399,-570.11C61.529,-605.661,-49.314,-560.361,-159.845,-544.381C-290.396,-525.506,-441.914,-556.129,-539.925,-467.848C-638.931,-378.671,-657.746,-227.995,-659.031,-94.754C-660.219,28.502,-611.743,144.941,-546.844,249.735C-487.648,345.321,-408.634,430.428,-305.732,475.728C-210.421,517.686,-103.745,481.428,0,490.469" fill="#0e2c3e"></path><path d="M1920 1710.5929999999998C2053.468 1712.366 2199.937 1762.478 2311.7690000000002 1689.604 2423.533 1616.775 2441.825 1464.63 2488.9629999999997 1339.837 2532.8869999999997 1223.551 2596.673 1108.286 2577.754 985.429 2558.906 863.033 2481.061 755.796 2386.679 675.621 2299.861 601.871 2181.515 593.393 2073.535 557.107 1960.389 519.086 1855.345 440.51300000000003 1737.177 457.36300000000006 1613.234 475.03700000000003 1514.51 563.803 1423.52 649.798 1324.46 743.421 1192.892 838.711 1189.508 974.971 1186.103 1112.05 1346.6480000000001 1191.155 1407.017 1314.272 1464.9479999999999 1432.416 1430.7359999999999 1598.837 1534.863 1679.284 1638.897 1759.658 1788.547 1708.847 1920 1710.5929999999998" fill="#1c5a82"></path></g><defs><mask id="SvgjsMask1346"><rect width="1920" height="1080" fill="#ffffff"></rect></mask></defs></svg>